<svg width="731" height="181" viewBox="0 0 731 181" fill="none" xmlns="http://www.w3.org/2000/svg">
<path d="M96.8474 123.658C96.2203 122.839 96.3423 122.235 96.4178 121.678C96.9403 117.578 95.2565 114.513 91.8655 112.399C87.2319 109.513 82.0874 107.777 76.9255 106.122C68.7035 103.486 60.7138 100.368 53.6764 95.2062C50.7325 93.0462 48.468 90.3287 46.6738 87.1874C44.6589 83.6687 44.897 80.0978 46.7493 76.6603C47.986 74.3668 49.5131 72.201 51.5686 70.5345C57.0615 66.0751 61.3699 60.6984 64.4532 54.3287C64.8596 53.4867 65.0861 52.4822 66.1138 51.8667C67.0893 52.8074 66.7235 54.0325 66.6887 55.0835C66.5203 59.8738 67.1764 64.5597 68.6919 69.0771C71.2119 76.5907 76.7455 81.3926 83.5274 84.981C88.5616 87.6462 93.6829 90.1604 98.1249 93.8242C102.271 97.2442 104.849 101.5 105.505 106.848C105.824 109.432 104.878 111.824 103.978 114.158C102.532 117.921 100.128 121.004 96.859 123.658H96.8474Z" fill="#FF5722"/>
<path d="M76.8616 78.2223C77.8138 75.2784 78.6035 72.8165 79.0158 70.2558C80.27 62.4809 78.4758 55.5713 73.6274 49.3235C69.3364 43.8016 63.6577 40.1493 57.4738 37.3854C46.6389 32.5428 36.466 26.6725 27.3382 19.1183C22.1821 14.8447 17.7808 9.82213 14.8253 3.70212C14.3898 2.80212 13.7685 1.85566 14.3724 0.537598C17.206 2.19825 19.7492 4.08535 22.5131 5.61825C29.835 9.68858 37.6563 12.3189 45.7447 14.3628C54.8202 16.6563 64.1164 18.1834 72.8145 21.8357C77.1983 23.6764 81.4371 25.7609 84.8513 29.1925C88.9274 33.2919 90.9481 38.2332 91.1861 43.999C91.5984 53.9513 88.1784 62.7597 83.2487 71.1326C82.2674 72.7932 81.1177 74.361 80.0087 75.9403C79.3525 76.8694 78.6674 77.8158 76.8674 78.2165L76.8616 78.2223Z" fill="#FF5722"/>
<path d="M161.764 41.8041C161.473 44.2312 160.457 46.0022 159.569 47.75C152.996 60.6868 143.677 71.0339 130.554 77.5719C121.96 81.8571 112.844 84.1332 103.159 84.0578C97.0449 84.0113 90.9829 83.8081 85.1184 81.8629C84.5668 81.6829 84.0151 81.4971 83.4809 81.2707C82.1339 80.7016 81.739 79.97 82.7609 78.6229C84.8106 75.9229 86.5584 73.0197 88.1726 70.0468C91.5229 63.8803 93.7352 57.3364 94.2578 50.1016C95.6107 50.4441 95.959 51.5009 96.47 52.3487C101.934 61.3951 111.625 65.6513 121.978 63.9732C134.044 62.0106 143.984 55.8732 153.42 48.6267C156.155 46.5248 158.768 44.2661 161.764 41.8099V41.8041Z" fill="#FF5722"/>
<path d="M57.5841 173.402C56.5796 169.233 57.0441 165.325 57.2531 161.365C57.5783 155.141 58.699 149.09 60.3538 143.121C62.5661 135.16 66.3925 128.053 72.3441 122.264C76.1938 118.525 80.7171 115.773 85.8558 114.048C87.4119 113.526 88.6197 113.793 89.9087 114.698C93.4855 117.213 94.8326 121.37 93.2532 125.417C92.2487 127.989 90.5764 130.091 88.5616 131.949C80.1016 139.748 71.5893 147.482 65.5157 157.457C62.8912 161.771 60.8706 166.353 58.9312 170.981C58.6061 171.753 58.6409 172.711 57.5667 173.402H57.5841Z" fill="#FF5722"/>
<path d="M0.419479 180.457C-0.0856837 179.853 -0.0276191 179.359 0.0536714 178.889C2.24851 166.457 5.54078 154.391 11.8872 143.342C16.5905 135.155 22.664 128.286 31.0195 123.664C34.8634 121.538 39.0209 120.308 43.3409 119.576C44.7809 119.332 45.3499 119.965 45.1467 121.341C45.0654 121.91 44.8796 122.468 44.6996 123.019C43.5441 126.509 42.0751 129.871 40.6815 133.268C38.4402 138.726 34.7589 142.889 29.9744 146.268C25.3989 149.502 21.1369 153.195 17.2292 157.173C11.266 163.246 6.08078 169.993 2.30077 177.704C1.83626 178.651 1.40658 179.615 0.419479 180.462V180.457Z" fill="#FF5722"/>
<path d="M85.8384 17.7944C85.9197 14.1538 86.6281 10.8325 89.3281 8.20213C92.2719 5.33954 95.7732 4.96793 99.3849 7.0118C103.49 9.3402 105.441 13.1725 106.631 17.4228C107.572 20.7905 107.746 24.2686 106.509 27.6944C105.656 30.0402 104.355 32.0377 102.253 33.3906C98.2584 35.9628 93.9732 34.5983 90.4603 30.557C87.3422 26.9686 85.8616 22.5499 85.8384 17.7886V17.7944Z" fill="#FF5722"/>
<path d="M51.1215 97.4823C56.2951 101.129 61.3699 103.417 66.7119 105.176C69.2145 106 69.4351 106.552 68.2506 108.666C62.537 118.885 55.4183 127.914 45.8202 134.8C44.8796 135.474 43.8809 136.06 42.8996 136.676C42.6615 136.827 42.4002 136.937 41.7615 136.502C47.7247 124.448 50.6918 111.517 51.1215 97.4881V97.4823Z" fill="#FF5722"/>
<path d="M249.892 34.5511V142H229.598V34.5511H249.892ZM293.211 80.9696V96.9836H244.579V80.9696H293.211ZM298.893 34.5511V50.5651H244.579V34.5511H298.893ZM331.881 62.1513V142H312.324V62.1513H331.881ZM310.996 41.2667C310.996 38.364 311.98 35.9533 313.948 34.0345C315.965 32.1158 318.671 31.1564 322.066 31.1564C325.46 31.1564 328.142 32.1158 330.11 34.0345C332.127 35.9533 333.135 38.364 333.135 41.2667C333.135 44.1202 332.127 46.5063 330.11 48.425C328.142 50.3437 325.46 51.3031 322.066 51.3031C318.671 51.3031 315.965 50.3437 313.948 48.425C311.98 46.5063 310.996 44.1202 310.996 41.2667ZM388.262 62.1513V76.1728H342.508V62.1513H388.262ZM354.758 42.5212H374.314V118.975C374.314 121.337 374.634 123.157 375.274 124.436C375.913 125.715 376.873 126.576 378.152 127.019C379.431 127.462 380.956 127.683 382.727 127.683C384.006 127.683 385.187 127.61 386.269 127.462C387.352 127.314 388.262 127.167 389 127.019L389.074 141.631C387.45 142.172 385.605 142.615 383.539 142.959C381.522 143.304 379.234 143.476 376.676 143.476C372.297 143.476 368.46 142.738 365.163 141.262C361.867 139.737 359.309 137.302 357.488 133.956C355.668 130.561 354.758 126.084 354.758 120.525V42.5212ZM434.828 142H411.656L411.803 126.06H434.828C441.076 126.06 446.316 124.682 450.547 121.927C454.778 119.123 457.976 115.113 460.14 109.898C462.305 104.634 463.388 98.3366 463.388 91.0061V85.4713C463.388 79.8135 462.773 74.8199 461.543 70.4904C460.313 66.161 458.492 62.5203 456.082 59.5684C453.72 56.6165 450.793 54.378 447.3 52.8529C443.807 51.3277 439.797 50.5651 435.271 50.5651H411.213V34.5511H435.271C442.454 34.5511 448.997 35.7565 454.901 38.1672C460.854 40.5779 465.995 44.0464 470.324 48.5726C474.703 53.0496 478.049 58.4122 480.361 64.6604C482.722 70.9086 483.903 77.8947 483.903 85.6189V91.0061C483.903 98.681 482.722 105.667 480.361 111.964C478.049 118.213 474.703 123.575 470.324 128.052C465.995 132.529 460.829 135.973 454.827 138.384C448.825 140.795 442.159 142 434.828 142ZM423.02 34.5511V142H402.726V34.5511H423.02ZM535.561 143.476C529.51 143.476 524.074 142.492 519.252 140.524C514.431 138.556 510.323 135.826 506.928 132.333C503.582 128.79 501 124.682 499.179 120.008C497.408 115.285 496.523 110.218 496.523 104.806V101.854C496.523 95.7045 497.408 90.1205 499.179 85.1023C500.95 80.0349 503.459 75.6808 506.707 72.0402C509.954 68.3995 513.84 65.5952 518.367 63.6273C522.893 61.6593 527.886 60.6754 533.347 60.6754C539.005 60.6754 543.999 61.6347 548.328 63.5535C552.658 65.423 556.274 68.0797 559.176 71.5236C562.079 74.9674 564.268 79.1001 565.744 83.9215C567.22 88.6937 567.958 93.9826 567.958 99.7879V107.979H505.378V94.5483H548.771V93.0724C548.673 89.9729 548.082 87.144 547 84.5857C545.918 81.9782 544.245 79.9119 541.982 78.3867C539.719 76.8124 536.791 76.0252 533.2 76.0252C530.297 76.0252 527.763 76.6648 525.599 77.9439C523.483 79.1739 521.712 80.945 520.285 83.2573C518.908 85.5205 517.875 88.2264 517.186 91.375C516.497 94.5237 516.153 98.0168 516.153 101.854V104.806C516.153 108.152 516.595 111.251 517.481 114.105C518.416 116.958 519.769 119.443 521.54 121.558C523.36 123.624 525.525 125.248 528.034 126.429C530.592 127.56 533.495 128.126 536.742 128.126C540.826 128.126 544.515 127.339 547.812 125.765C551.157 124.141 554.06 121.755 556.52 118.606L566.335 128.79C564.662 131.25 562.399 133.612 559.545 135.875C556.741 138.138 553.346 139.983 549.361 141.41C545.376 142.787 540.776 143.476 535.561 143.476ZM624.93 120.156C624.93 118.483 624.487 116.983 623.602 115.654C622.716 114.326 621.043 113.121 618.583 112.038C616.173 110.907 612.63 109.849 607.956 108.865C603.824 107.979 600.011 106.872 596.518 105.544C593.025 104.216 590.024 102.617 587.515 100.747C585.006 98.8286 583.038 96.5901 581.611 94.0317C580.233 91.4242 579.545 88.4232 579.545 85.0285C579.545 81.7322 580.258 78.6327 581.685 75.73C583.111 72.7781 585.178 70.1952 587.884 67.9813C590.59 65.7182 593.886 63.947 597.772 62.6679C601.659 61.3395 606.038 60.6754 610.908 60.6754C617.698 60.6754 623.528 61.7823 628.398 63.9962C633.318 66.2102 637.082 69.2605 639.689 73.1471C642.297 76.9846 643.601 81.314 643.601 86.1354H624.118C624.118 84.0199 623.626 82.1012 622.642 80.3792C621.707 78.6573 620.256 77.2798 618.288 76.2466C616.32 75.1642 613.836 74.6231 610.835 74.6231C608.129 74.6231 605.841 75.0658 603.971 75.9514C602.151 76.837 600.774 77.9931 599.839 79.4199C598.904 80.8466 598.437 82.421 598.437 84.1429C598.437 85.4221 598.683 86.5782 599.175 87.6114C599.716 88.5953 600.577 89.5055 601.758 90.3419C602.938 91.1783 604.537 91.9408 606.554 92.6296C608.621 93.3184 611.154 93.9826 614.155 94.6221C620.108 95.8029 625.299 97.3772 629.727 99.3452C634.204 101.264 637.697 103.822 640.206 107.02C642.715 110.218 643.97 114.301 643.97 119.27C643.97 122.813 643.207 126.06 641.682 129.012C640.157 131.914 637.943 134.448 635.04 136.613C632.137 138.778 628.669 140.475 624.635 141.705C620.6 142.886 616.05 143.476 610.982 143.476C603.652 143.476 597.453 142.172 592.385 139.565C587.318 136.908 583.48 133.563 580.873 129.528C578.265 125.445 576.962 121.214 576.962 116.835H595.632C595.78 119.935 596.616 122.419 598.141 124.289C599.667 126.158 601.585 127.511 603.898 128.347C606.259 129.135 608.744 129.528 611.351 129.528C614.303 129.528 616.788 129.135 618.805 128.347C620.822 127.511 622.347 126.404 623.38 125.027C624.413 123.6 624.93 121.976 624.93 120.156ZM678.285 28.5735V142H658.803V28.5735H678.285ZM728.32 62.1513L693.561 101.19L674.743 120.304L668.544 105.175L683.082 86.8734L704.779 62.1513H728.32ZM708.395 142L683.673 104.806L696.661 92.1868L730.977 142H708.395Z" fill="#FF5722"/>
</svg>
