<?xml version="1.0" encoding="UTF-8"?>
<svg version="1.1" xmlns="http://www.w3.org/2000/svg" width="500" height="500">
<path d="M0 0 C5.18984546 0.64345645 9.57329669 2.99204019 14.25 5.1875 C30.53314496 12.63105476 46.51210443 17.2550236 64 21 C75.99739657 23.57296831 87.65751832 26.7024116 99.3125 30.5625 C101.02119263 31.12662598 101.02119263 31.12662598 102.7644043 31.70214844 C108.78604434 33.74380695 114.39271317 36.00311111 120 39 C121.33153887 39.67024359 122.66444424 40.33779684 124 41 C124 41.66 124 42.32 124 43 C124.680625 43.165 125.36125 43.33 126.0625 43.5 C133.37483147 47.23395649 137.36886756 54.47439539 140 62 C143.42709538 73.9309602 141.81174848 88.78831155 137 100 C136.62617188 100.88816406 136.25234375 101.77632813 135.8671875 102.69140625 C133.05114259 108.79905331 129.29689022 113.85890839 125 119 C124.44699219 119.69867188 123.89398438 120.39734375 123.32421875 121.1171875 C122.80472656 121.75914062 122.28523438 122.40109375 121.75 123.0625 C121.29109375 123.63097656 120.8321875 124.19945312 120.359375 124.78515625 C119 126 119 126 116 126 C116.15984375 125.03707031 116.3196875 124.07414062 116.484375 123.08203125 C118.60088175 108.15015121 117.56960108 94.93746635 109.3046875 82.12890625 C108 80 108 80 107 77 C105.15237077 75.95342226 105.15237077 75.95342226 103 75 C100.92369043 73.49756486 98.91808811 71.92226111 96.90234375 70.33984375 C94.9370042 68.81914723 94.9370042 68.81914723 92 68 C92 67.34 92 66.68 92 66 C91.19091187 65.83262329 91.19091187 65.83262329 90.36547852 65.66186523 C87.46867666 64.85133475 84.88453516 63.67069147 82.15234375 62.41015625 C80.99895508 61.87825684 79.84556641 61.34635742 78.65722656 60.79833984 C77.41698675 60.22043631 76.17708476 59.64180727 74.9375 59.0625 C73.99602112 58.62324188 73.99602112 58.62324188 73.03552246 58.17510986 C58.82613583 51.53316567 44.8123439 44.83560501 31.8125 36 C31.12188477 35.53062012 30.43126953 35.06124023 29.71972656 34.57763672 C28.10495811 33.44195244 26.54570096 32.22803276 25 31 C25 30.34 25 29.68 25 29 C24.45859375 28.7834375 23.9171875 28.566875 23.359375 28.34375 C20.18354656 26.53500003 17.79271919 24.08276201 15.25 21.5 C14.74339844 21.00113281 14.23679687 20.50226563 13.71484375 19.98828125 C10 16.25341139 10 16.25341139 10 14 C9.34 14 8.68 14 8 14 C7.34 12.35 6.68 10.7 6 9 C5.34 9 4.68 9 4 9 C0 3.70588235 0 3.70588235 0 0 Z " fill="#F5FBF7" transform="translate(59,104)"/>
<path d="M0 0 C2.14450501 3.21675752 2.34780001 4.58247798 2.67578125 8.33984375 C2.77858398 9.3976001 2.88138672 10.45535645 2.98730469 11.54516602 C3.14827637 13.22437134 3.14827637 13.22437134 3.3125 14.9375 C4.68576553 27.50644649 6.45264714 37.18668388 15.64453125 46.4765625 C17 48 17 48 17 50 C17.72832031 50.26167969 18.45664063 50.52335937 19.20703125 50.79296875 C22.05236086 52.02262868 24.2077584 53.46396536 26.6875 55.3125 C31.57892178 58.8063727 36.57402406 61.4438985 42 64 C67.10283857 75.85014272 67.10283857 75.85014272 72.4375 88.375 C73.87859678 97.66206815 71.09119672 104.36320492 66 112 C65.34 112 64.68 112 64 112 C63.62875 112.86625 63.62875 112.86625 63.25 113.75 C61.83316683 116.3002997 60.12372463 118.01785701 58 120 C56 117 56 117 55.125 114.1875 C53.8881684 110.68314381 52.08477581 108.05767119 50 105 C50 104.34 50 103.68 50 103 C49.12601563 102.56494141 49.12601563 102.56494141 48.234375 102.12109375 C46.88206709 101.44257562 45.53610107 100.75090644 44.203125 100.03515625 C38.76468563 97.32681344 33.29522811 96.17205279 27.3605957 95.13818359 C8.6761361 91.87461691 -13.87696603 86.45238711 -28 73 C-28 72.34 -28 71.68 -28 71 C-28.66 71 -29.32 71 -30 71 C-30 70.34 -30 69.68 -30 69 C-30.598125 68.79375 -31.19625 68.5875 -31.8125 68.375 C-35.61886804 65.9824258 -36.60942791 62.28330831 -37.875 58.125 C-38.10945347 52.26366324 -35.38728774 46.71274816 -32 42 C-31.34 42 -30.68 42 -30 42 C-29.75507812 41.43796875 -29.51015625 40.8759375 -29.2578125 40.296875 C-27.7664325 37.57348543 -25.9698375 35.54191281 -23.875 33.25 C-23.07191406 32.36957031 -22.26882812 31.48914063 -21.44140625 30.58203125 C-19.2848361 28.30124266 -17.07459694 26.11242558 -14.8125 23.9375 C-8.61805998 17.79231994 -4.74860779 11.13543396 -1.76171875 2.96875 C-1 1 -1 1 0 0 Z " fill="#F7FCF9" transform="translate(151,181)"/>
<path d="M0 0 C3.11998584 2.07999056 3.90562169 3.22553254 5.625 6.4375 C6.05039063 7.21996094 6.47578125 8.00242188 6.9140625 8.80859375 C8 11 8 11 9 14 C9.66 14 10.32 14 11 14 C11 14.66 11 15.32 11 16 C11.66 16 12.32 16 13 16 C14.625 17.375 14.625 17.375 16 19 C16 19.66 16 20.32 16 21 C16.845625 21.268125 17.69125 21.53625 18.5625 21.8125 C22 23 22 23 25.3125 24.5 C33.03247027 27.64032689 40.46469905 28.36096897 48.75 28.3125 C49.71719971 28.30903564 50.68439941 28.30557129 51.6809082 28.30200195 C59.13179741 28.18911914 65.8538635 27.14583708 73 25 C73.90234375 24.79503906 74.8046875 24.59007812 75.734375 24.37890625 C86.92377373 21.77559238 96.93026767 16.22979531 106.01171875 9.28515625 C108 8 108 8 111 8 C111 7.34 111 6.68 111 6 C117.75 2 117.75 2 120 2 C118.125 6.75 118.125 6.75 117 9 C116.34 9 115.68 9 115 9 C114.75121094 9.5465625 114.50242187 10.093125 114.24609375 10.65625 C112.74853597 13.4729731 110.95597974 15.93304795 109.0625 18.5 C108.37285156 19.4384375 107.68320312 20.376875 106.97265625 21.34375 C106.32167969 22.2203125 105.67070312 23.096875 105 24 C104.19369141 25.16015625 104.19369141 25.16015625 103.37109375 26.34375 C102.91863281 26.8903125 102.46617187 27.436875 102 28 C101.34 28 100.68 28 100 28 C100 28.66 100 29.32 100 30 C98.26608049 31.60634015 96.461909 33.1375287 94.625 34.625 C93.62726563 35.44226563 92.62953125 36.25953125 91.6015625 37.1015625 C89 39 89 39 87 39 C87 39.66 87 40.32 87 41 C66.84743034 55.27473684 43.61144246 62.18823284 19.05126953 62.18530273 C17.03265498 62.18746502 15.01461024 62.20559472 12.99609375 62.22460938 C0.33348099 62.24317626 -11.96715267 61.24688729 -24 57 C-23.12808515 52.4934738 -21.09672921 50.32331916 -18 47 C-17.34 47 -16.68 47 -16 47 C-15.74992188 46.319375 -15.49984375 45.63875 -15.2421875 44.9375 C-14.05822387 42.13768664 -12.67218453 39.5344045 -11.18188477 36.88769531 C-5.52862179 26.79043744 -1.78227534 16.92153078 -1.17578125 5.2421875 C-1 3 -1 3 0 0 Z " fill="#F6FCF8" transform="translate(208,176)"/>
<path d="M0 0 C3.22415574 2.45035837 5.65236834 4.6956987 6.2734375 8.8125 C6.63596324 16.62074675 3.98009312 22.48428785 -1.04296875 28.41015625 C-2.96360558 30.39376478 -4.83354923 32.28788217 -7 34 C-7.66 34 -8.32 34 -9 34 C-9 34.66 -9 35.32 -9 36 C-9.66 36 -10.32 36 -11 36 C-11 36.66 -11 37.32 -11 38 C-12.22265625 39.19921875 -12.22265625 39.19921875 -14.0625 40.6875 C-18.57438851 44.51527545 -22.7550224 48.63299819 -26.9375 52.8125 C-27.94985718 53.8183313 -27.94985718 53.8183313 -28.98266602 54.84448242 C-29.61615967 55.47974854 -30.24965332 56.11501465 -30.90234375 56.76953125 C-31.47460693 57.34292236 -32.04687012 57.91631348 -32.63647461 58.50708008 C-34.10062576 59.97377378 -34.10062576 59.97377378 -35 62 C-35.66 62 -36.32 62 -37 62 C-37.23074219 62.53238281 -37.46148437 63.06476563 -37.69921875 63.61328125 C-39.40374789 66.74081069 -41.59703604 69.41512795 -43.8125 72.1875 C-47.75978349 77.20647309 -51.17645936 82.24889354 -54 88 C-54.66 88 -55.32 88 -56 88 C-56.061875 88.66 -56.12375 89.32 -56.1875 90 C-57.30378495 94.1216675 -59.33761566 97.65750502 -62 101 C-62.66 101 -63.32 101 -64 101 C-64.5154412 86.73946009 -63.38793982 73.85828717 -60 60 C-59.74992188 58.90816406 -59.49984375 57.81632812 -59.2421875 56.69140625 C-57.81553759 50.91101438 -55.6592746 45.67751796 -53.0859375 40.3125 C-51.91062231 37.92688287 -51.91062231 37.92688287 -51 35 C-50.34 35 -49.68 35 -49 35 C-48.855625 34.401875 -48.71125 33.80375 -48.5625 33.1875 C-48.1127561 31.43849596 -47.57107659 29.71322977 -47 28 C-46.34 28 -45.68 28 -45 28 C-44.5359375 27.071875 -44.5359375 27.071875 -44.0625 26.125 C-43.375 24.75 -42.6875 23.375 -42 22 C-41.34 22 -40.68 22 -40 22 C-39.7525 21.4225 -39.505 20.845 -39.25 20.25 C-37.81700012 17.67060021 -36.21575324 15.93878408 -34 14 C-33.34 14 -32.68 14 -32 14 C-32 13.34 -32 12.68 -32 12 C-30.02449212 10.60871244 -28.07417887 9.35305009 -26 8.125 C-25.40203613 7.76857422 -24.80407227 7.41214844 -24.18798828 7.04492188 C-22.46237176 6.02364815 -20.73130783 5.01159557 -19 4 C-18.25492188 3.53335937 -17.50984375 3.06671875 -16.7421875 2.5859375 C-11.45435249 -0.48941424 -6.01844678 -1.12080621 0 0 Z " fill="#F7FCF8" transform="translate(196,287)"/>
<path d="M0 0 C-0.59924224 4.19469571 -1.57499941 8.00999834 -3 12 C-3.66 12 -4.32 12 -5 12 C-5 13.32 -5 14.64 -5 16 C-5.66 16 -6.32 16 -7 16 C-7.12246094 16.57492187 -7.24492188 17.14984375 -7.37109375 17.7421875 C-9.59288815 25.7185674 -15.39045283 33.08533101 -21 39 C-21.99 39.33 -22.98 39.66 -24 40 C-24 40.66 -24 41.32 -24 42 C-24.66 42 -25.32 42 -26 42 C-26 42.66 -26 43.32 -26 44 C-26.66 44 -27.32 44 -28 44 C-28 44.66 -28 45.32 -28 46 C-29.65 46.66 -31.3 47.32 -33 48 C-33 48.66 -33 49.32 -33 50 C-34.61739155 51.29331861 -36.29673889 52.50956534 -38 53.6875 C-42.41745384 56.80536742 -46.48700615 60.0668997 -50.44140625 63.75 C-52 65 -52 65 -54 65 C-54 65.66 -54 66.32 -54 67 C-54.66 67 -55.32 67 -56 67 C-56.268125 67.5775 -56.53625 68.155 -56.8125 68.75 C-58.02929189 71.05550043 -59.30333879 73.02056192 -61 75 C-61.66 75 -62.32 75 -63 75 C-63.28875 75.763125 -63.5775 76.52625 -63.875 77.3125 C-65 80 -65 80 -67 83 C-67.66 83 -68.32 83 -69 83 C-69.24492188 83.83789062 -69.48984375 84.67578125 -69.7421875 85.5390625 C-71.161461 89.44426847 -73.01857766 92.80971271 -75.125 96.375 C-75.49753906 97.01566406 -75.87007812 97.65632813 -76.25390625 98.31640625 C-77.16434002 99.88048477 -78.08148191 101.44065534 -79 103 C-79.66 103 -80.32 103 -81 103 C-82.02709893 72.70058145 -67.14770846 42.86432936 -47 21 C-46.46632812 20.35546875 -45.93265625 19.7109375 -45.3828125 19.046875 C-34.68989718 6.97576171 -15.9481894 -0.4666773 0 0 Z " fill="#F6FCF8" transform="translate(112,294)"/>
<path d="M0 0 C2.95064148 -0.2208564 5.68368231 -0.28060989 8.625 -0.1875 C9.42679687 -0.17396484 10.22859375 -0.16042969 11.0546875 -0.14648438 C13.03674378 -0.11109051 15.01845551 -0.05728234 17 0 C20.06080552 6.72780954 22.36883572 13.69596749 24.75 20.6875 C25.4178754 22.63805244 26.08678033 24.58824992 26.75572205 26.53843689 C27.2017093 27.83884119 27.64739917 29.13934752 28.0927887 30.43995667 C30.02147874 36.07101353 31.97189464 41.69423517 33.9375 47.3125 C34.20723633 48.0861792 34.47697266 48.8598584 34.75488281 49.65698242 C36.00605361 53.23056981 37.30295276 56.77030563 38.69140625 60.29296875 C40 64 40 64 40 68 C35.05 68 30.1 68 25 68 C22 62 22 62 20 53 C12.41 53.33 4.82 53.66 -3 54 C-4.65 58.62 -6.3 63.24 -8 68 C-13.28 68 -18.56 68 -24 68 C-22.01455957 60.36943586 -19.67198736 53.01638756 -16.9375 45.625 C-14.31220517 38.44871784 -11.72655261 31.26282031 -9.2578125 24.03125 C-8.91898796 23.03984512 -8.91898796 23.03984512 -8.57331848 22.02841187 C-7.46791655 18.78998617 -6.36848941 15.54964435 -5.27514648 12.30712891 C-4.87626221 11.13585449 -4.47737793 9.96458008 -4.06640625 8.7578125 C-3.71521729 7.7177002 -3.36402832 6.67758789 -3.00219727 5.60595703 C-2 3 -2 3 0 0 Z M8 18 C7.01885373 21.08270694 6.04043123 24.16627178 5.0625 27.25 C4.78470703 28.12269531 4.50691406 28.99539063 4.22070312 29.89453125 C3.95322266 30.73886719 3.68574219 31.58320313 3.41015625 32.453125 C3.16402588 33.22817383 2.91789551 34.00322266 2.66430664 34.80175781 C2.04546305 36.84955924 1.51884816 38.92460734 1 41 C5.95 41 10.9 41 16 41 C14.04314998 32.70668323 11.81256861 25.59241132 8 18 Z " fill="#F7FCF8" transform="translate(425,253)"/>
<path d="M0 0 C13.53 0 27.06 0 41 0 C42.24377393 2.48754786 42.13306235 4.22655301 42.125 7 C42.12886719 8.3303125 42.12886719 8.3303125 42.1328125 9.6875 C42 12 42 12 41 14 C32.09 14 23.18 14 14 14 C14.33 18.62 14.66 23.24 15 28 C17.36478516 27.98259766 17.36478516 27.98259766 19.77734375 27.96484375 C21.83072799 27.95546757 23.8841135 27.94636718 25.9375 27.9375 C26.97841797 27.92912109 28.01933594 27.92074219 29.09179688 27.91210938 C30.08115234 27.90888672 31.07050781 27.90566406 32.08984375 27.90234375 C33.46450806 27.89448853 33.46450806 27.89448853 34.86694336 27.88647461 C37 28 37 28 38 29 C38.09873816 30.99799572 38.12971799 32.99957158 38.125 35 C38.12886719 36.6396875 38.12886719 36.6396875 38.1328125 38.3125 C38 41 38 41 37 42 C35.29227642 42.08713831 33.58101351 42.10700007 31.87109375 42.09765625 C30.93966553 42.09515869 30.0082373 42.09266113 29.04858398 42.09008789 C27.26109741 42.07643188 27.26109741 42.07643188 25.4375 42.0625 C21.663125 42.041875 17.88875 42.02125 14 42 C14 50.58 14 59.16 14 68 C9.38 68 4.76 68 0 68 C0 45.56 0 23.12 0 0 Z " fill="#F9FEFB" transform="translate(250,253)"/>
<path d="M0 0 C3.04057572 2.64397889 4.72372114 4.17116342 6 8 C6.66 8 7.32 8 8 8 C10.07198681 12.26000489 10.38367327 16.21311921 10.375 20.875 C10.37693359 21.94137695 10.37693359 21.94137695 10.37890625 23.02929688 C10.26773613 28.51200501 9.39443968 31.7569504 6 36 C5.34 36 4.68 36 4 36 C4 36.66 4 37.32 4 38 C-1.67166679 41.94550733 -6.11695696 43.03894989 -13 42 C-19.63358088 40.09105586 -24.14543063 35.59433447 -28 30 C-30.13782728 25.83798409 -30.29846031 22.20963654 -30.3125 17.5625 C-30.32925781 16.28503906 -30.34601563 15.00757813 -30.36328125 13.69140625 C-29.81604188 8.13074809 -27.86840125 4.24538277 -23.5625 0.6875 C-22.98628906 0.19636719 -22.41007813 -0.29476562 -21.81640625 -0.80078125 C-15.31288487 -5.09450397 -6.39033338 -3.56383977 0 0 Z " fill="#F1FAF4" transform="translate(222,117)"/>
<path d="M0 0 C3.55228605 1.31869944 6.61702782 2.90871071 9.8125 4.9375 C14.10678272 7.57072583 18.22831933 9.40943978 23 11 C23 11.66 23 12.32 23 13 C23.886875 13.144375 24.77375 13.28875 25.6875 13.4375 C28.47117646 13.91019978 31.23483757 14.43070185 34 15 C33.33298297 18.52448507 31.89642169 21.18300138 30.0625 24.25 C29.53785156 25.14203125 29.01320312 26.0340625 28.47265625 26.953125 C27.98667969 27.62859375 27.50070313 28.3040625 27 29 C26.34 29 25.68 29 25 29 C24.34 30.65 23.68 32.3 23 34 C22.34 34 21.68 34 21 34 C21 34.66 21 35.32 21 36 C20.34 36 19.68 36 19 36 C18.7628125 36.56203125 18.525625 37.1240625 18.28125 37.703125 C16.71052303 40.51894042 14.78528536 42.47955416 12.5 44.75 C11.7059375 45.54921875 10.911875 46.3484375 10.09375 47.171875 C8 49 8 49 6 49 C6 49.66 6 50.32 6 51 C-0.06212074 55.75876478 -6.51985473 59.99638966 -14 62 C-16.21875 61.55859375 -16.21875 61.55859375 -18 61 C-17.22076172 59.49373047 -17.22076172 59.49373047 -16.42578125 57.95703125 C-6.82581234 39.22049251 -0.61529539 21.13539654 0 0 Z " fill="#F8FCF9" transform="translate(123,261)"/>
<path d="M0 0 C1.33257403 10.55808656 1.33257403 10.55808656 0 15 C3.3 15 6.6 15 10 15 C10 18.96 10 22.92 10 27 C6.7 27 3.4 27 0 27 C0.33 34.92 0.66 42.84 1 51 C4.3 51.33 7.6 51.66 11 52 C11.495 57.94 11.495 57.94 12 64 C4.15516188 65.56896762 -1.88056869 65.90870739 -9 62 C-12.53732313 59.20737648 -13.35635585 57.38043155 -14 53 C-14.07905625 50.94266727 -14.10779825 48.88304487 -14.09765625 46.82421875 C-14.09443359 45.66728516 -14.09121094 44.51035156 -14.08789062 43.31835938 C-14.07951172 42.12017578 -14.07113281 40.92199219 -14.0625 39.6875 C-14.05798828 38.46998047 -14.05347656 37.25246094 -14.04882812 35.99804688 C-14.03706578 32.99864774 -14.02062826 29.99934911 -14 27 C-16.97 27 -19.94 27 -23 27 C-23 23.04 -23 19.08 -23 15 C-19.7 15 -16.4 15 -13 15 C-13 10.38 -13 5.76 -13 1 C-8.61414671 0.29826347 -4.44209357 -0.10834375 0 0 Z " fill="#F4FBF6" transform="translate(339,257)"/>
<path d="M0 0 C4.95 0 9.9 0 15 0 C15 22.44 15 44.88 15 68 C10.05 68 5.1 68 0 68 C0 45.56 0 23.12 0 0 Z " fill="#E0F3E5" transform="translate(380,253)"/>
<path d="M0 0 C4.29 0 8.58 0 13 0 C13.95162372 2.85487115 14.12163139 4.60454317 14.11352539 7.56323242 C14.11344986 8.48396042 14.11337433 9.40468842 14.11329651 10.35331726 C14.10813522 11.34402725 14.10297394 12.33473724 14.09765625 13.35546875 C14.0962413 14.37224197 14.09482635 15.3890152 14.09336853 16.43659973 C14.08776707 19.68692964 14.07521432 22.93719088 14.0625 26.1875 C14.05748519 28.38997296 14.05292225 30.59244701 14.04882812 32.79492188 C14.03779716 38.19664107 14.02053154 43.59830889 14 49 C9.38 49 4.76 49 0 49 C0 32.83 0 16.66 0 0 Z " fill="#FDFEFC" transform="translate(297,272)"/>
<path d="M0 0 C13.53 0 27.06 0 41 0 C42.24377393 2.48754786 42.13306235 4.22655301 42.125 7 C42.12886719 8.3303125 42.12886719 8.3303125 42.1328125 9.6875 C42 12 42 12 41 14 C32.09 14 23.18 14 14 14 C14.33 18.62 14.66 23.24 15 28 C17.36478516 27.98259766 17.36478516 27.98259766 19.77734375 27.96484375 C21.83072799 27.95546757 23.8841135 27.94636718 25.9375 27.9375 C26.97841797 27.92912109 28.01933594 27.92074219 29.09179688 27.91210938 C30.08115234 27.90888672 31.07050781 27.90566406 32.08984375 27.90234375 C33.46450806 27.89448853 33.46450806 27.89448853 34.86694336 27.88647461 C37 28 37 28 38 29 C38.09873816 30.99799572 38.12971799 32.99957158 38.125 35 C38.12886719 36.6396875 38.12886719 36.6396875 38.1328125 38.3125 C38 41 38 41 37 42 C35.29227642 42.08713831 33.58101351 42.10700007 31.87109375 42.09765625 C30.93966553 42.09515869 30.0082373 42.09266113 29.04858398 42.09008789 C27.26109741 42.07643188 27.26109741 42.07643188 25.4375 42.0625 C21.663125 42.041875 17.88875 42.02125 14 42 C14 50.58 14 59.16 14 68 C13.67 68 13.34 68 13 68 C13 59.09 13 50.18 13 41 C20.59 41 28.18 41 36 41 C35.67 37.7 35.34 34.4 35 31 C27.74 30.67 20.48 30.34 13 30 C13 24.39 13 18.78 13 13 C21.91 13 30.82 13 40 13 C40 9.04 40 5.08 40 1 C26.8 1 13.6 1 0 1 C0 0.67 0 0.34 0 0 Z " fill="#65CE7D" transform="translate(250,253)"/>
<path d="M0 0 C4.29 0 8.58 0 13 0 C13.33 0.99 13.66 1.98 14 3 C10.37 3.33 6.74 3.66 3 4 C2.67 18.19 2.34 32.38 2 47 C5.3 47 8.6 47 12 47 C12 34.13 12 21.26 12 8 C12.66 7.67 13.32 7.34 14 7 C14 20.86 14 34.72 14 49 C9.38 49 4.76 49 0 49 C0 32.83 0 16.66 0 0 Z " fill="#ABE5C0" transform="translate(297,272)"/>
<path d="M0 0 C3 2 3 2 3.546875 3.83984375 C3.61390625 4.53207031 3.6809375 5.22429687 3.75 5.9375 C3.82734375 6.62714844 3.9046875 7.31679688 3.984375 8.02734375 C4 10 4 10 3 13 C-0.7205836 15.48038907 -2.59796571 15.46337203 -7 15 C-9.4375 13.4375 -9.4375 13.4375 -11 11 C-11.56288002 7.05983987 -11.60396028 4.94217804 -9.4375 1.5625 C-6.11598609 -0.56667558 -3.87338754 -0.42255137 0 0 Z " fill="#D9F1E1" transform="translate(307,252)"/>
<path d="M0 0 C0.33 0 0.66 0 1 0 C1 2.97 1 5.94 1 9 C0.34 9 -0.32 9 -1 9 C-0.979375 9.94875 -0.95875 10.8975 -0.9375 11.875 C-1 15 -1 15 -2 17 C-2.66 17 -3.32 17 -4 17 C-3.79375 17.7425 -3.5875 18.485 -3.375 19.25 C-2.94881351 22.37536757 -3.52264649 23.32229676 -5 26 C-4.67 26.66 -4.34 27.32 -4 28 C-3.01 28.33 -2.02 28.66 -1 29 C-1 28.34 -1 27.68 -1 27 C-0.01 27 0.98 27 2 27 C2.66 25.68 3.32 24.36 4 23 C5.32 23.66 6.64 24.32 8 25 C2.24281958 29.30608782 -3.0181876 33.07398279 -10 35 C-12.2265625 34.5625 -12.2265625 34.5625 -14 34 C-13.48050781 32.99582031 -12.96101563 31.99164063 -12.42578125 30.95703125 C-4.64622212 16.05651238 -4.64622212 16.05651238 0 0 Z M-8 26 C-7.67 26.66 -7.34 27.32 -7 28 C-6.67 27.34 -6.34 26.68 -6 26 C-6.66 26 -7.32 26 -8 26 Z " fill="#F7FCF9" transform="translate(119,288)"/>
<path d="M0 0 C0.33 0 0.66 0 1 0 C1 2.64 1 5.28 1 8 C0.34 8 -0.32 8 -1 8 C-0.67 9.65 -0.34 11.3 0 13 C4.16204606 10.44601719 7.22931926 8.04945647 10 4 C10 3.34 10 2.68 10 2 C11.32 2.33 12.64 2.66 14 3 C12.7260411 5.03833424 11.38938077 7.03852126 10 9 C9.34 9 8.68 9 8 9 C7.75507812 9.83789062 7.51015625 10.67578125 7.2578125 11.5390625 C5.838539 15.44426847 3.98142234 18.80971271 1.875 22.375 C1.50246094 23.01566406 1.12992188 23.65632813 0.74609375 24.31640625 C-0.16434002 25.88048477 -1.08148191 27.44065534 -2 29 C-2.66 29 -3.32 29 -4 29 C-4.33458511 19.12973927 -3.06210912 9.40504945 0 0 Z " fill="#A3DDB3" transform="translate(35,368)"/>
<path d="M0 0 C1.98 0 3.96 0 6 0 C7.33257403 10.55808656 7.33257403 10.55808656 6 15 C9.3 15 12.6 15 16 15 C16 18.96 16 22.92 16 27 C12.7 27 9.4 27 6 27 C6 34.92 6 42.84 6 51 C5.67 51 5.34 51 5 51 C5 42.75 5 34.5 5 26 C8.96 24.515 8.96 24.515 13 23 C14.14031566 19.92202417 14.14031566 19.92202417 14 17 C12.700625 17.020625 11.40125 17.04125 10.0625 17.0625 C8.70834367 17.08399454 7.35243917 17.07148199 6 17 C5 16 5 16 4.90234375 12.62109375 C4.90901631 11.22652923 4.92097468 9.83198257 4.9375 8.4375 C4.94201172 7.72658203 4.94652344 7.01566406 4.95117188 6.28320312 C4.96299136 4.52209987 4.98092737 2.76103964 5 1 C3.35 1 1.7 1 0 1 C0 0.67 0 0.34 0 0 Z " fill="#94D7AB" transform="translate(333,257)"/>
<path d="M0 0 C-1.875 4.75 -1.875 4.75 -3 7 C-3.66 7 -4.32 7 -5 7 C-5.24492187 7.54140625 -5.48984375 8.0828125 -5.7421875 8.640625 C-7.29353788 11.55061143 -9.16714304 14.0974196 -11.125 16.75 C-11.84945313 17.73484375 -12.57390625 18.7196875 -13.3203125 19.734375 C-13.87460937 20.48203125 -14.42890625 21.2296875 -15 22 C-16.125 18.25 -16.125 18.25 -15 16 C-14.34 16 -13.68 16 -13 16 C-12.67 14.02 -12.34 12.04 -12 10 C-13.32 9.67 -14.64 9.34 -16 9 C-12.375 6 -12.375 6 -9 6 C-9 5.34 -9 4.68 -9 4 C-2.25 0 -2.25 0 0 0 Z " fill="#BAE8CA" transform="translate(328,178)"/>
<path d="M0 0 C2.08326131 -0.02709444 4.16662441 -0.04643873 6.25 -0.0625 C7.41015625 -0.07410156 8.5703125 -0.08570313 9.765625 -0.09765625 C12.47687579 -0.01579481 14.42382084 0.31703632 17 1 C26.91958331 1.99811956 37.03599083 2.46407714 47 2 C47.33 1.67 47.66 1.34 48 1 C50.35313555 0.92728259 52.70833668 0.91629132 55.0625 0.9375 C56.35285156 0.94652344 57.64320313 0.95554688 58.97265625 0.96484375 C59.97167969 0.97644531 60.97070312 0.98804688 62 1 C62 1.33 62 1.66 62 2 C52.10074901 3.68424423 42.60797895 4.31006265 32.5625 4.25 C31.27279297 4.25773438 29.98308594 4.26546875 28.65429688 4.2734375 C4.22450452 4.22450452 4.22450452 4.22450452 0 0 Z " fill="#9EDBB0" transform="translate(192,234)"/>
<path d="M0 0 C2.34770643 3.52155964 2.37669614 5.50771843 2.625 9.6875 C2.69976562 10.86699219 2.77453125 12.04648438 2.8515625 13.26171875 C2.90054688 14.16535156 2.94953125 15.06898438 3 16 C1.68 15.34 0.36 14.68 -1 14 C-1.763125 14.680625 -2.52625 15.36125 -3.3125 16.0625 C-4.199375 16.701875 -5.08625 17.34125 -6 18 C-6.99 17.67 -7.98 17.34 -9 17 C-8.4225 16.21625 -7.845 15.4325 -7.25 14.625 C-4.81758535 11.01533129 -3.35518202 7.13393137 -1.83203125 3.07421875 C-1 1 -1 1 0 0 Z " fill="#B1E7C5" transform="translate(151,181)"/>
<path d="M0 0 C5.1692853 0.66326879 9.62251365 2.91924657 14.3125 5.0625 C15.56643555 5.62807617 15.56643555 5.62807617 16.84570312 6.20507812 C18.89927262 7.13211807 20.95056287 8.06386878 23 9 C22.01 9.66 21.02 10.32 20 11 C15.62098103 10.12419621 12.36527536 8.96144232 9 6 C8.34 7.65 7.68 9.3 7 11 C6.67 10.34 6.34 9.68 6 9 C5.34 9 4.68 9 4 9 C0 3.70588235 0 3.70588235 0 0 Z " fill="#D8F4DF" transform="translate(59,104)"/>
<path d="M0 0 C8.25 0 16.5 0 25 0 C25 0.66 25 1.32 25 2 C25.66 2 26.32 2 27 2 C28.5912689 6.873261 29.21192221 10.80790596 29 16 C26.77858289 11.89892226 24 6.73442329 24 2 C16.08 2.33 8.16 2.66 0 3 C0 2.01 0 1.02 0 0 Z " fill="#A9DABB" transform="translate(421,304)"/>
<path d="M0 0 C0.33 0 0.66 0 1 0 C1.125 6.75 1.125 6.75 0 9 C3.63 9 7.26 9 11 9 C11.66 6.03 12.32 3.06 13 0 C13.99 0 14.98 0 16 0 C15.69078116 1.45903258 15.37751201 2.91720722 15.0625 4.375 C14.80146484 5.59316406 14.80146484 5.59316406 14.53515625 6.8359375 C14 9 14 9 13 11 C7.72 11 2.44 11 -3 11 C-2.01 7.37 -1.02 3.74 0 0 Z " fill="#BAE9CB" transform="translate(404,310)"/>
<path d="M0 0 C0 0.66 0 1.32 0 2 C-1.57421875 3.18359375 -1.57421875 3.18359375 -3.6875 4.4375 C-4.42097656 4.88351562 -5.15445313 5.32953125 -5.91015625 5.7890625 C-7.45249626 6.68275484 -9.03063525 7.51531762 -10.625 8.3125 C-13.68604063 10.48744992 -15.41477761 13.14534231 -17.47265625 16.2578125 C-19.25147807 18.28685223 -20.37109515 18.62686512 -23 19 C-23 19.66 -23 20.32 -23 21 C-23.66 21 -24.32 21 -25 21 C-23.3702267 16.9304463 -20.48898957 14.10547906 -17.4375 11.0625 C-16.90463379 10.52979492 -16.37176758 9.99708984 -15.82275391 9.44824219 C-6.097992 0 -6.097992 0 0 0 Z " fill="#BCEBCD" transform="translate(84,302)"/>
<path d="M0 0 C9.17196711 -0.59493841 19.06831679 -0.09714201 26.89453125 5.30859375 C28.66667333 7.02966545 29.89690351 8.79380703 31 11 C29.05558919 10.03209639 27.11682434 9.06272959 25.203125 8.03515625 C19.44376787 5.1669964 13.71444053 4.02226964 7.40917969 3.03930664 C2.19617377 2.19617377 2.19617377 2.19617377 0 0 Z " fill="#A9E3BE" transform="translate(170,273)"/>
<path d="M0 0 C3.72749167 1.49099667 6.49868895 2.83357796 9.8125 4.9375 C14.10678272 7.57072583 18.22831933 9.40943978 23 11 C23 11.66 23 12.32 23 13 C25.97 13.495 25.97 13.495 29 14 C25.86650268 15.04449911 25.01031744 14.93423645 22 14 C22 13.34 22 12.68 22 12 C21.34 12.0825 20.68 12.165 20 12.25 C14.03900148 11.75325012 9.03475017 8.0208501 4 5 C3.01 4.67 2.02 4.34 1 4 C1 6.97 1 9.94 1 13 C0.67 13 0.34 13 0 13 C0 8.71 0 4.42 0 0 Z " fill="#9FE2B0" transform="translate(123,261)"/>
<path d="M0 0 C0.33 0 0.66 0 1 0 C1 2.97 1 5.94 1 9 C0.34 9 -0.32 9 -1 9 C-0.979375 9.94875 -0.95875 10.8975 -0.9375 11.875 C-1 15 -1 15 -2 17 C-2.66 17 -3.32 17 -4 17 C-3.773125 17.7425 -3.54625 18.485 -3.3125 19.25 C-3 22 -3 22 -4.3125 24.3125 C-4.869375 24.869375 -5.42625 25.42625 -6 26 C-6.66 26 -7.32 26 -8 26 C-8 26.99 -8 27.98 -8 29 C-8.66 29 -9.32 29 -10 29 C-8.93464243 24.64171904 -7.49386784 20.80470899 -5.5625 16.75 C-3.01193207 11.30929149 -1.38809793 5.83452546 0 0 Z " fill="#98DAA9" transform="translate(119,288)"/>
<path d="M0 0 C8.02386726 0.40799325 14.62364642 2.91036813 22 6 C22 6.66 22 7.32 22 8 C24.475 8.495 24.475 8.495 27 9 C19.93845202 11.5708709 11.14390756 6.14504223 4.75 3.25 C3.16375898 2.50616946 1.57925898 1.75854171 0 1 C0 0.67 0 0.34 0 0 Z " fill="#AEE4BE" transform="translate(139,263)"/>
<path d="M0 0 C2.59585896 2.59585896 3.21035478 4.99952765 4.41796875 8.46875 C4.63947098 9.10486206 4.86097321 9.74097412 5.08918762 10.3963623 C5.55515797 11.74027572 6.0181145 13.08523735 6.47827148 14.43115234 C7.18593282 16.49542848 7.90775739 18.55437067 8.63085938 20.61328125 C9.08159504 21.91897225 9.53149364 23.22495257 9.98046875 24.53125 C10.39192139 25.72298828 10.80337402 26.91472656 11.22729492 28.14257812 C12 31 12 31 11 33 C8.6223299 30.40617808 7.69354533 28.18143797 6.9375 24.8125 C6.628125 23.554375 6.31875 22.29625 6 21 C5.34 20.67 4.68 20.34 4 20 C3.5859375 17.49609375 3.5859375 17.49609375 3.375 14.4375 C3.30023438 13.42558594 3.22546875 12.41367187 3.1484375 11.37109375 C3.07496094 10.19740234 3.07496094 10.19740234 3 9 C2.34 9 1.68 9 1 9 C0.67 6.03 0.34 3.06 0 0 Z " fill="#8DDAA1" transform="translate(443,258)"/>
<path d="M0 0 C-0.59924224 4.19469571 -1.57499941 8.00999834 -3 12 C-3.66 12 -4.32 12 -5 12 C-5.04241723 9.66705225 -5.04092937 7.33297433 -5 5 C-4.67 4.67 -4.34 4.34 -4 4 C-7.63 3.67 -11.26 3.34 -15 3 C-10.12206417 -0.25195722 -5.77608621 -0.11325659 0 0 Z " fill="#AFE0C0" transform="translate(112,294)"/>
<path d="M0 0 C2.31 0 4.62 0 7 0 C7 0.33 7 0.66 7 1 C5.02 1 3.04 1 1 1 C1.09539062 2.05960937 1.19078125 3.11921875 1.2890625 4.2109375 C1.40160106 5.59891309 1.51354965 6.98693661 1.625 8.375 C1.68945312 9.07367188 1.75390625 9.77234375 1.8203125 10.4921875 C1.96119739 12.32369111 1.98761659 14.16312748 2 16 C1.34 16.66 0.68 17.32 0 18 C-2.3828125 17.9765625 -2.3828125 17.9765625 -5.125 17.625 C-6.03507812 17.51414062 -6.94515625 17.40328125 -7.8828125 17.2890625 C-8.58148438 17.19367188 -9.28015625 17.09828125 -10 17 C-10 16.01 -10 15.02 -10 14 C-6.7 14 -3.4 14 0 14 C0 9.38 0 4.76 0 0 Z " fill="#B1E3C0" transform="translate(326,258)"/>
<path d="M0 0 C3.10609978 2.07073319 3.94458127 3.24999997 5.6875 6.4375 C6.34298828 7.61119141 6.34298828 7.61119141 7.01171875 8.80859375 C8 11 8 11 8 14 C3.2 11.53846154 3.2 11.53846154 2.1875 8.8125 C2.0946875 7.9153125 2.0946875 7.9153125 2 7 C1.67 7 1.34 7 1 7 C0.96261719 7.60328125 0.92523438 8.2065625 0.88671875 8.828125 C0.82097656 9.62734375 0.75523437 10.4265625 0.6875 11.25 C0.62949219 12.03890625 0.57148438 12.8278125 0.51171875 13.640625 C-0.0849853 16.39184062 -1.18663789 17.88035957 -3 20 C-2.69140975 17.22867983 -2.3782967 14.45800014 -2.0625 11.6875 C-1.97548828 10.90181641 -1.88847656 10.11613281 -1.79882812 9.30664062 C-1.71181641 8.54931641 -1.62480469 7.79199219 -1.53515625 7.01171875 C-1.41732788 5.96697388 -1.41732788 5.96697388 -1.29711914 4.90112305 C-1 3 -1 3 0 0 Z " fill="#98D9AD" transform="translate(208,176)"/>
<path d="M0 0 C5.61 0 11.22 0 17 0 C17.33 1.65 17.66 3.3 18 5 C17.34 4.34 16.68 3.68 16 3 C13.26565038 2.6936141 10.61720179 2.4886664 7.875 2.375 C7.12089844 2.33632812 6.36679687 2.29765625 5.58984375 2.2578125 C3.72696816 2.16348969 1.86351745 2.08065338 0 2 C-0.14308594 2.77730469 -0.28617187 3.55460937 -0.43359375 4.35546875 C-0.97384004 6.87786006 -1.75446715 8.75804088 -3 11 C-3.33 10.34 -3.66 9.68 -4 9 C-2.88378061 5.89253496 -1.4097791 2.99044051 0 0 Z " fill="#78CA93" transform="translate(425,253)"/>
<path d="M0 0 C3.3 0 6.6 0 10 0 C10.01458252 0.74048584 10.02916504 1.48097168 10.04418945 2.24389648 C10.11927222 5.64225413 10.21573281 9.0396934 10.3125 12.4375 C10.33505859 13.60216797 10.35761719 14.76683594 10.38085938 15.96679688 C10.59602356 22.91073186 11.42200556 28.53773511 14 35 C13.34 35 12.68 35 12 35 C8.92147612 30.38221418 8.87546271 26.28107061 8.90234375 20.82421875 C8.90556641 19.66728516 8.90878906 18.51035156 8.91210938 17.31835938 C8.92048828 16.12017578 8.92886719 14.92199219 8.9375 13.6875 C8.94201172 12.46998047 8.94652344 11.25246094 8.95117188 9.99804688 C8.96293422 6.99864774 8.97937174 3.99934911 9 1 C6.03 1 3.06 1 0 1 C0 0.67 0 0.34 0 0 Z " fill="#70C68D" transform="translate(316,283)"/>
<path d="M0 0 C0.66 0.33 1.32 0.66 2 1 C1.71682074 2.60568666 1.42312209 4.20952047 1.125 5.8125 C0.96257813 6.70582031 0.80015625 7.59914063 0.6328125 8.51953125 C0 11 0 11 -2 14 C-2.66 14 -3.32 14 -4 14 C-4 11.03 -4 8.06 -4 5 C-3.34 5 -2.68 5 -2 5 C-1.7834375 4.0409375 -1.7834375 4.0409375 -1.5625 3.0625 C-1 1 -1 1 0 0 Z " fill="#EFFEF2" transform="translate(35,383)"/>
<path d="M0 0 C2.14079837 4.28159675 -0.19513509 10.43213034 -1 15 C-1.15726563 15.92039062 -1.31453125 16.84078125 -1.4765625 17.7890625 C-1.87887214 19.88243641 -2.42773246 21.9465694 -3 24 C-3.99 24.66 -4.98 25.32 -6 26 C-5.70701361 19.77403912 -4.60904769 13.9384448 -3 7.9375 C-2.82178711 7.27032959 -2.64357422 6.60315918 -2.45996094 5.91577148 C-1.13816745 1.13816745 -1.13816745 1.13816745 0 0 Z " fill="#A5E1B7" transform="translate(140,335)"/>
<path d="M0 0 C0.66 0 1.32 0 2 0 C1.71572583 1.58467728 1.42225182 3.1677057 1.125 4.75 C0.96257812 5.63171875 0.80015625 6.5134375 0.6328125 7.421875 C0.03203736 9.86947744 -0.77997117 11.80599857 -2 14 C-1.4225 13.79375 -0.845 13.5875 -0.25 13.375 C2.53731028 12.91044829 3.58030999 13.66815382 6 15 C4.52168779 15.19412181 3.04230684 15.38012131 1.5625 15.5625 C0.73878906 15.66691406 -0.08492188 15.77132813 -0.93359375 15.87890625 C-1.61550781 15.91886719 -2.29742187 15.95882813 -3 16 C-3.33 15.67 -3.66 15.34 -4 15 C-3.57699017 11.26341315 -3.01457095 7.62346766 -2 4 C-1.34 4 -0.68 4 0 4 C0 2.68 0 1.36 0 0 Z " fill="#AAE3C7" transform="translate(428,280)"/>
<path d="M0 0 C0 3.38023517 -0.87455622 5.83468937 -2 9 C-1.34 9.66 -0.68 10.32 0 11 C-0.78375 11.433125 -1.5675 11.86625 -2.375 12.3125 C-5.21698375 13.89220247 -5.21698375 13.89220247 -7 17 C-7.66 17 -8.32 17 -9 17 C-7.46933687 11.18348012 -4.32262613 4.32262613 0 0 Z " fill="#B4E0C3" transform="translate(52,332)"/>
<path d="M0 0 C0.99 0 1.98 0 3 0 C2.33298297 3.52448507 0.89642169 6.18300138 -0.9375 9.25 C-1.46214844 10.14203125 -1.98679688 11.0340625 -2.52734375 11.953125 C-3.01332031 12.62859375 -3.49929687 13.3040625 -4 14 C-4.66 14 -5.32 14 -6 14 C-6.33 14.66 -6.66 15.32 -7 16 C-7 14.35 -7 12.7 -7 11 C-6.01 11 -5.02 11 -4 11 C-3.67 9.02 -3.34 7.04 -3 5 C-2.34 5 -1.68 5 -1 5 C-0.67 3.35 -0.34 1.7 0 0 Z " fill="#ABE3BC" transform="translate(154,276)"/>
<path d="M0 0 C2.08326131 -0.02709444 4.16662441 -0.04643873 6.25 -0.0625 C7.41015625 -0.07410156 8.5703125 -0.08570313 9.765625 -0.09765625 C12.48677822 -0.01549583 14.41189459 0.33336679 17 1 C19.58656673 1.22288501 22.15952778 1.41314385 24.75 1.5625 C25.44738281 1.60568359 26.14476562 1.64886719 26.86328125 1.69335938 C28.57531922 1.79889596 30.28763561 1.8998991 32 2 C32 2.33 32 2.66 32 3 C28.35423608 3.05878077 24.70859648 3.0938558 21.0625 3.125 C20.04091797 3.14175781 19.01933594 3.15851563 17.96679688 3.17578125 C11.64311648 3.21618815 6.11683473 2.62010013 0 1 C0 0.67 0 0.34 0 0 Z " fill="#BEE8CC" transform="translate(192,234)"/>
<path d="M0 0 C-2.72931793 3.26309597 -6.32166572 4.90051326 -10.0625 6.75 C-10.69994141 7.07871094 -11.33738281 7.40742188 -11.99414062 7.74609375 C-13.63124982 8.56378581 -15.31360322 9.28949826 -17 10 C-17.66 9.67 -18.32 9.34 -19 9 C-17.03292677 6.48651754 -16.18526966 6.02646709 -12.9375 5.5625 C-11.4834375 5.2840625 -11.4834375 5.2840625 -10 5 C-8.77472052 3.04978917 -8.77472052 3.04978917 -8 1 C-5.07175348 0.02391783 -3.04386724 -0.08226668 0 0 Z " fill="#B3E4C4" transform="translate(290,219)"/>
<path d="M0 0 C0.66 0 1.32 0 2 0 C1.2927782 5.65777441 -0.9613921 11.18790409 -5.25 15 C-5.8275 15.33 -6.405 15.66 -7 16 C-6.42415568 13.61435923 -5.77772405 11.33317216 -5 9 C-4.34 9 -3.68 9 -3 9 C-2.814375 8.1646875 -2.814375 8.1646875 -2.625 7.3125 C-1.94023145 4.77885636 -1.00866237 2.42078968 0 0 Z " fill="#9DE3AC" transform="translate(200,300)"/>
<path d="M0 0 C0.33 0 0.66 0 1 0 C1.36134972 5.78159553 0.45790037 9.72006588 -2 15 C-2.99 15.33 -3.98 15.66 -5 16 C-3.90301833 10.30860098 -2.45946923 5.25432063 0 0 Z " fill="#B0E3BF" transform="translate(415,280)"/>
<path d="M0 0 C0.99 0.33 1.98 0.66 3 1 C2.50628906 1.68707031 2.01257813 2.37414062 1.50390625 3.08203125 C0.86324219 3.98308594 0.22257813 4.88414062 -0.4375 5.8125 C-1.07558594 6.70582031 -1.71367187 7.59914063 -2.37109375 8.51953125 C-4.13290268 10.97134334 -4.13290268 10.97134334 -5 14 C-5.66 14 -6.32 14 -7 14 C-7.33 15.65 -7.66 17.3 -8 19 C-8.33 19 -8.66 19 -9 19 C-9 17.35 -9 15.7 -9 14 C-8.01 13.67 -7.02 13.34 -6 13 C-5.67 11.02 -5.34 9.04 -5 7 C-4.34 7 -3.68 7 -3 7 C-2.690625 6.030625 -2.38125 5.06125 -2.0625 4.0625 C-1 1 -1 1 0 0 Z " fill="#A8DEBB" transform="translate(147,361)"/>
<path d="M0 0 C0 3.56958511 -0.86756673 4.7488052 -2.8125 7.6875 C-3.33457031 8.49574219 -3.85664062 9.30398437 -4.39453125 10.13671875 C-4.92433594 10.75160156 -5.45414063 11.36648437 -6 12 C-6.99 12 -7.98 12 -9 12 C-9.268125 12.969375 -9.53625 13.93875 -9.8125 14.9375 C-10.4003125 16.4534375 -10.4003125 16.4534375 -11 18 C-11.99 18.33 -12.98 18.66 -14 19 C-12.87548273 16.0280615 -11.77706209 13.66559313 -10 11 C-9.34 11 -8.68 11 -8 11 C-7.73445313 10.41734375 -7.46890625 9.8346875 -7.1953125 9.234375 C-5.96697004 6.93825772 -4.59685061 5.19643982 -2.875 3.25 C-2.33617188 2.63640625 -1.79734375 2.0228125 -1.2421875 1.390625 C-0.62730469 0.70226562 -0.62730469 0.70226562 0 0 Z " fill="#86CF9E" transform="translate(129,212)"/>
<path d="M0 0 C0.66 1.32 1.32 2.64 2 4 C1.01 4.495 1.01 4.495 0 5 C-0.33 5.66 -0.66 6.32 -1 7 C-1.66 7 -2.32 7 -3 7 C-3.66 8.32 -4.32 9.64 -5 11 C-5.66 11 -6.32 11 -7 11 C-7 11.66 -7 12.32 -7 13 C-8.32 12.67 -9.64 12.34 -11 12 C-10.28972656 11.30132812 -9.57945312 10.60265625 -8.84765625 9.8828125 C-7.92855469 8.97273437 -7.00945312 8.06265625 -6.0625 7.125 C-4.68771484 5.76761719 -4.68771484 5.76761719 -3.28515625 4.3828125 C-0.98812373 2.22317745 -0.98812373 2.22317745 0 0 Z " fill="#A0DEAD" transform="translate(141,199)"/>
<path d="M0 0 C0.33 0.66 0.66 1.32 1 2 C-1.9499161 2.86011221 -4.49679601 3.08299706 -7.5625 3 C-10.50447059 2.92062137 -12.14674472 3.04891491 -15 4 C-15.66 4.66 -16.32 5.32 -17 6 C-17.66 5.34 -18.32 4.68 -19 4 C-12.45783241 0.05001202 -7.57771707 -0.50146657 0 0 Z " fill="#9FDCB4" transform="translate(196,287)"/>
<path d="M0 0 C-0.66 0 -1.32 0 -2 0 C-2 0.66 -2 1.32 -2 2 C-3.65 2.66 -5.3 3.32 -7 4 C-7 4.66 -7 5.32 -7 6 C-8.65 6.66 -10.3 7.32 -12 8 C-12 7.01 -12 6.02 -12 5 C-11.34 5 -10.68 5 -10 5 C-9.67 4.01 -9.34 3.02 -9 2 C-8.01 2 -7.02 2 -6 2 C-6 1.34 -6 0.68 -6 0 C-3.50907189 -1.24546405 -2.58919267 -0.7767578 0 0 Z " fill="#A8E2B4" transform="translate(86,338)"/>
<path d="M0 0 C0 4.95 0 9.9 0 15 C-0.33 15 -0.66 15 -1 15 C-1 10.71 -1 6.42 -1 2 C-4.3 2.66 -7.6 3.32 -11 4 C-11 3.01 -11 2.02 -11 1 C-7.18939869 0.29105092 -3.91978817 0 0 0 Z " fill="#EAFEF1" transform="translate(338,258)"/>
<path d="M0 0 C2.31 0.33 4.62 0.66 7 1 C7 1.66 7 2.32 7 3 C7.804375 3.12375 8.60875 3.2475 9.4375 3.375 C10.7059375 3.684375 10.7059375 3.684375 12 4 C12.33 4.66 12.66 5.32 13 6 C15.01669827 7.13350534 15.01669827 7.13350534 17 8 C14 9 14 9 10.64453125 7.34765625 C9.36110983 6.59622298 8.08393866 5.83403499 6.8125 5.0625 C5.83120117 4.48338867 5.83120117 4.48338867 4.83007812 3.89257812 C3.21464684 2.93746912 1.60659475 1.96989934 0 1 C0 0.67 0 0.34 0 0 Z " fill="#9EDCB2" transform="translate(99,144)"/>
<path d="M0 0 C0.33 0.99 0.66 1.98 1 3 C1.68707031 2.90460938 2.37414062 2.80921875 3.08203125 2.7109375 C3.98308594 2.60007812 4.88414062 2.48921875 5.8125 2.375 C6.70582031 2.25898438 7.59914063 2.14296875 8.51953125 2.0234375 C11 2 11 2 14 4 C14.33 3.01 14.66 2.02 15 1 C15 2.32 15 3.64 15 5 C10.05 5 5.1 5 0 5 C0 3.35 0 1.7 0 0 Z " fill="#C9F6DC" transform="translate(450,316)"/>
<path d="M0 0 C4.29 0 8.58 0 13 0 C13 0.66 13 1.32 13 2 C9.37 2.33 5.74 2.66 2 3 C1.67 6.3 1.34 9.6 1 13 C0.67 13 0.34 13 0 13 C0 8.71 0 4.42 0 0 Z " fill="#DAFDE8" transform="translate(298,273)"/>
<path d="M0 0 C4.26511313 1.70604525 6.61418999 3.09787714 10 6 C6.61976483 6 4.16531063 5.12544378 1 4 C1 6.97 1 9.94 1 13 C0.67 13 0.34 13 0 13 C0 8.71 0 4.42 0 0 Z " fill="#7BCB9C" transform="translate(123,261)"/>
<path d="M0 0 C-0.66 0 -1.32 0 -2 0 C-2.33 0.99 -2.66 1.98 -3 3 C-8.36095333 4.12862175 -13.55306686 4.09688221 -19 4 C-19 3.67 -19 3.34 -19 3 C-18.43152344 2.87882813 -17.86304688 2.75765625 -17.27734375 2.6328125 C-13.51013635 1.81522158 -9.80349688 0.97039945 -6.125 -0.1875 C-3 -1 -3 -1 0 0 Z " fill="#77CF90" transform="translate(291,200)"/>
<path d="M0 0 C0.8125 1.6875 0.8125 1.6875 1 4 C-1.62685275 7.22727623 -3.74780225 9.52753358 -8 10 C-6.68 7.69 -5.36 5.38 -4 3 C-3.01 3 -2.02 3 -1 3 C-0.67 2.01 -0.34 1.02 0 0 Z " fill="#CDEBD7" transform="translate(150,189)"/>
<path d="M0 0 C1.32 0.66 2.64 1.32 4 2 C2.4050992 3.19991599 0.79873853 4.38461318 -0.8125 5.5625 C-1.70582031 6.22378906 -2.59914063 6.88507813 -3.51953125 7.56640625 C-4.33808594 8.03949219 -5.15664062 8.51257813 -6 9 C-6.99 8.67 -7.98 8.34 -9 8 C-8.67 7.34 -8.34 6.68 -8 6 C-7.01 6 -6.02 6 -5 6 C-5 5.34 -5 4.68 -5 4 C-4.01 4 -3.02 4 -2 4 C-1.34 2.68 -0.68 1.36 0 0 Z " fill="#B2E7C1" transform="translate(123,311)"/>
<path d="M0 0 C1.62671023 3.11356754 2.94882554 6.27576452 4.1875 9.5625 C4.55230469 10.51253906 4.91710937 11.46257812 5.29296875 12.44140625 C6 15 6 15 5 18 C4.67 18 4.34 18 4 18 C3.71125 16.88625 3.4225 15.7725 3.125 14.625 C2.30758671 10.99708908 2.30758671 10.99708908 0 9 C-0.62931533 6.32404177 -0.78130812 3.75551768 -1 1 C-0.67 0.67 -0.34 0.34 0 0 Z " fill="#9CD8B2" transform="translate(458,300)"/>
<path d="M0 0 C0 0.66 0 1.32 0 2 C-4.20024742 5.32608425 -8.8423143 7.58163643 -14 9 C-10.44113418 5.11760093 -5.62095916 0 0 0 Z " fill="#AADEBD" transform="translate(84,302)"/>
<path d="M0 0 C0.33 0 0.66 0 1 0 C1.738041 17.07744875 1.738041 17.07744875 -3 23 C-3.33 21.68 -3.66 20.36 -4 19 C-3.34 19 -2.68 19 -2 19 C-2.0309375 17.7934375 -2.0309375 17.7934375 -2.0625 16.5625 C-2 14 -2 14 -1 13 C-0.76518307 10.81707226 -0.58636677 8.62796826 -0.4375 6.4375 C-0.35371094 5.23996094 -0.26992187 4.04242188 -0.18359375 2.80859375 C-0.12300781 1.88175781 -0.06242188 0.95492187 0 0 Z " fill="#A3DFB7" transform="translate(231,130)"/>
<path d="M0 0 C1.98 0 3.96 0 6 0 C4.87548273 2.9719385 3.77706209 5.33440687 2 8 C1.34 8 0.68 8 0 8 C0 5.36 0 2.72 0 0 Z " fill="#8DD79D" transform="translate(132,380)"/>
<path d="M0 0 C0.99 0.33 1.98 0.66 3 1 C2.67 1.66 2.34 2.32 2 3 C1.34 3 0.68 3 0 3 C-0.2475 3.5775 -0.495 4.155 -0.75 4.75 C-2.16683317 7.3002997 -3.87627537 9.01785701 -6 11 C-6 9.35 -6 7.7 -6 6 C-5.01 6 -4.02 6 -3 6 C-2.87625 5.38125 -2.7525 4.7625 -2.625 4.125 C-2 2 -2 2 0 0 Z " fill="#AFE8BF" transform="translate(159,346)"/>
<path d="M0 0 C0.33 1.32 0.66 2.64 1 4 C0.01 4.33 -0.98 4.66 -2 5 C-0.74458443 7.51083114 0.50063488 7.87125446 3 9 C-2.75 9.125 -2.75 9.125 -5 8 C-4.45773019 4.20411134 -2.79872437 2.52788007 0 0 Z " fill="#8FD3A5" transform="translate(189,225)"/>
<path d="M0 0 C0.66 0.33 1.32 0.66 2 1 C-4.525 7.8875 -4.525 7.8875 -9.75 8.125 C-10.4925 8.08375 -11.235 8.0425 -12 8 C-9.91350942 5.91350942 -8.0260206 4.82940113 -5.4375 3.4375 C-2.53070076 1.97704566 -2.53070076 1.97704566 0 0 Z " fill="#ADDFBF" transform="translate(310,188)"/>
<path d="M0 0 C2.64 0.33 5.28 0.66 8 1 C8.33 1.99 8.66 2.98 9 4 C10.89179203 4.6814823 10.89179203 4.6814823 13 5 C13.99 5.33 14.98 5.66 16 6 C16.33 6.99 16.66 7.98 17 9 C16.34 9 15.68 9 15 9 C15 8.34 15 7.68 15 7 C14.18789062 6.83177734 14.18789062 6.83177734 13.359375 6.66015625 C10.49971779 5.86002037 7.94256292 4.6876185 5.25 3.4375 C4.26515625 2.98246094 3.2803125 2.52742187 2.265625 2.05859375 C1.51796875 1.70925781 0.7703125 1.35992187 0 1 C0 0.67 0 0.34 0 0 Z " fill="#94D8AB" transform="translate(136,163)"/>
<path d="M0 0 C5.94 2.475 5.94 2.475 12 5 C11.01 5.66 10.02 6.32 9 7 C2.66666667 5.66666667 2.66666667 5.66666667 0 3 C0 2.01 0 1.02 0 0 Z " fill="#ABDCBF" transform="translate(70,108)"/>
<path d="M0 0 C0.33 0 0.66 0 1 0 C1 1.65 1 3.3 1 5 C0.34 5 -0.32 5 -1 5 C-1.144375 5.763125 -1.28875 6.52625 -1.4375 7.3125 C-2 10 -2 10 -3 13 C-3.66 13 -4.32 13 -5 13 C-5.33 13.99 -5.66 14.98 -6 16 C-5.27991594 11.39146203 -3.68704061 7.32762591 -2 3 C-1.34 3 -0.68 3 0 3 C0 2.01 0 1.02 0 0 Z " fill="#93E4A6" transform="translate(147,319)"/>
<path d="M0 0 C0.99 0.33 1.98 0.66 3 1 C2.38722388 3.96175123 1.74627478 5.38058783 0 8 C-0.66 8 -1.32 8 -2 8 C-2 8.99 -2 9.98 -2 11 C-2.66 11 -3.32 11 -4 11 C-2.95902388 7.13351728 -1.96301592 3.50538557 0 0 Z " fill="#B3E7C1" transform="translate(113,306)"/>
<path d="M0 0 C1.32 0 2.64 0 4 0 C2.95125002 2.62187494 2.35068687 3.79371361 -0.125 5.25 C-0.74375 5.4975 -1.3625 5.745 -2 6 C-2 6.66 -2 7.32 -2 8 C-2.66 8 -3.32 8 -4 8 C-4.33 6.68 -4.66 5.36 -5 4 C-3.35 4 -1.7 4 0 4 C0 2.68 0 1.36 0 0 Z " fill="#A3DEBA" transform="translate(90,328)"/>
<path d="M0 0 C1.32 0.66 2.64 1.32 4 2 C2.71064081 3.14842923 1.41843421 4.29366227 0.125 5.4375 C-0.59429687 6.07558594 -1.31359375 6.71367187 -2.0546875 7.37109375 C-4 9 -4 9 -6 10 C-6 8.68 -6 7.36 -6 6 C-5.34 6 -4.68 6 -4 6 C-4 5.34 -4 4.68 -4 4 C-2.70766393 2.62689293 -1.37562854 1.28965176 0 0 Z " fill="#A8DEBA" transform="translate(181,323)"/>
<path d="M0 0 C-1.875 4.75 -1.875 4.75 -3 7 C-3.66 7 -4.32 7 -5 7 C-5 6.34 -5 5.68 -5 5 C-6.32 4.67 -7.64 4.34 -9 4 C-2.25 0 -2.25 0 0 0 Z " fill="#8CD5A8" transform="translate(328,178)"/>
<path d="M0 0 C0.99 0 1.98 0 3 0 C4.5912689 4.873261 5.21192221 8.80790596 5 14 C2.77858289 9.89892226 0 4.73442329 0 0 Z " fill="#97D9A9" transform="translate(445,306)"/>
<path d="M0 0 C0.99 0 1.98 0 3 0 C1.55746343 3.36591866 -0.33264727 5.51047079 -3 8 C-5 5 -5 5 -4.625 2.8125 C-4.41875 2.214375 -4.2125 1.61625 -4 1 C-3.67 1.66 -3.34 2.32 -3 3 C-2.01 3 -1.02 3 0 3 C0 2.01 0 1.02 0 0 Z " fill="#97DDB1" transform="translate(212,293)"/>
<path d="M0 0 C0.99 0 1.98 0 3 0 C3.07347656 1.06541016 3.07347656 1.06541016 3.1484375 2.15234375 C3.22320312 3.07144531 3.29796875 3.99054688 3.375 4.9375 C3.44460938 5.85402344 3.51421875 6.77054687 3.5859375 7.71484375 C3.72257812 8.46894531 3.85921875 9.22304688 4 10 C4.66 10.33 5.32 10.66 6 11 C5.34 11.66 4.68 12.32 4 13 C1.97944157 8.60748167 0.59104765 4.84659077 0 0 Z " fill="#A1E1B7" transform="translate(435,275)"/>
<path d="M0 0 C1.02328619 3.19411474 0.96256253 5.4215884 0.25 8.6875 C0.09015625 9.47511719 -0.0696875 10.26273437 -0.234375 11.07421875 C-0.61335938 12.02748047 -0.61335938 12.02748047 -1 13 C-1.99 13.33 -2.98 13.66 -4 14 C-3.36843005 8.94744036 -1.86540627 4.70406799 0 0 Z " fill="#82D6A0" transform="translate(409,296)"/>
<path d="M0 0 C1 2 2 4 3 6 C6.02934491 6.65772428 6.02934491 6.65772428 9 7 C9 7.33 9 7.66 9 8 C5.7 8 2.4 8 -1 8 C-1.04241723 5.66705225 -1.04092937 3.33297433 -1 1 C-0.67 0.67 -0.34 0.34 0 0 Z " fill="#D4F7DC" transform="translate(317,275)"/>
<path d="M0 0 C3.465 1.98 3.465 1.98 7 4 C7 4.99 7 5.98 7 7 C6.01 7.33 5.02 7.66 4 8 C4 7.01 4 6.02 4 5 C2.68 4.34 1.36 3.68 0 3 C0 2.01 0 1.02 0 0 Z " fill="#A8E4B7" transform="translate(173,234)"/>
<path d="M0 0 C1.32 0.33 2.64 0.66 4 1 C4 1.66 4 2.32 4 3 C5.2065625 3.433125 5.2065625 3.433125 6.4375 3.875 C9 5 9 5 10 7 C7.03 6.505 7.03 6.505 4 6 C4 5.34 4 4.68 4 4 C2.68 3.67 1.36 3.34 0 3 C0 2.01 0 1.02 0 0 Z " fill="#B0E2BE" transform="translate(179,144)"/>
<path d="M0 0 C1.41750563 0.11509661 2.83401169 0.24253658 4.25 0.375 C5.03890625 0.44460937 5.8278125 0.51421875 6.640625 0.5859375 C9.085877 1.01507113 10.84836903 1.78600638 13 3 C8.49016565 4.36661647 5.37909149 3.60005266 1 2 C0.67 1.34 0.34 0.68 0 0 Z " fill="#A2E2B4" transform="translate(123,126)"/>
<path d="M0 0 C0.99 0.33 1.98 0.66 3 1 C2.01 1.495 2.01 1.495 1 2 C0.690625 2.639375 0.38125 3.27875 0.0625 3.9375 C-1 6 -1 6 -4 8 C-4.33 6.68 -4.66 5.36 -5 4 C-2.6875 1.9375 -2.6875 1.9375 0 0 Z " fill="#C0E3C9" transform="translate(141,295)"/>
<path d="M0 0 C1.98 0 3.96 0 6 0 C1.48631832 3.81926912 -3.09749318 5.34720628 -9 5 C-6.23776722 2.23776722 -3.79293383 2.42143709 0 2 C0 1.34 0 0.68 0 0 Z " fill="#9BD7AE" transform="translate(265,229)"/>
<path d="M0 0 C0.97744926 3.04095325 1.16271218 4.99632687 0 8 C-1.4375 9.75 -1.4375 9.75 -3 11 C-3.66 11 -4.32 11 -5 11 C-3.55049545 7.2089881 -1.84827434 3.6125362 0 0 Z " fill="#A0D7B3" transform="translate(199,209)"/>
<path d="M0 0 C3.34373475 0.55728913 6.03312999 1.35173889 9 3 C6.50907189 4.24546405 5.58919267 3.7767578 3 3 C3.33 4.32 3.66 5.64 4 7 C2 5.1875 2 5.1875 0 3 C0 2.01 0 1.02 0 0 Z " fill="#8AD4A3" transform="translate(59,104)"/>
<path d="M0 0 C4.96916636 0.51405169 9.29026351 1.23384882 14 3 C14 3.33 14 3.66 14 4 C12.22825181 3.91276622 10.45752623 3.80458345 8.6875 3.6875 C7.70136719 3.62949219 6.71523437 3.57148438 5.69921875 3.51171875 C2.75615543 2.95377187 1.81817001 2.31459868 0 0 Z " fill="#9AD8AF" transform="translate(136,129)"/>
<path d="M0 0 C1 3 1 3 0.22265625 4.82421875 C-0.8515625 6.54947917 -1.92578125 8.27473958 -3 10 C-3.66 10 -4.32 10 -5 10 C-3.14285714 2.42857143 -3.14285714 2.42857143 0 0 Z " fill="#B0DEBF" transform="translate(197,119)"/>
<path d="M0 0 C0.66 1.32 1.32 2.64 2 4 C2.99 3.34 3.98 2.68 5 2 C4.1875 4.9375 4.1875 4.9375 3 8 C2.01 8.33 1.02 8.66 0 9 C0 6.03 0 3.06 0 0 Z " fill="#4EBB76" transform="translate(31,388)"/>
<path d="M0 0 C0.33 0.99 0.66 1.98 1 3 C2.65 3 4.3 3 6 3 C3.23776722 5.76223278 0.79293383 5.57856291 -3 6 C-2.01 4.02 -1.02 2.04 0 0 Z " fill="#A2E5BA" transform="translate(108,317)"/>
<path d="M0 0 C1.60746056 0.42523816 3.21089836 0.86570126 4.8125 1.3125 C6.15248047 1.67794922 6.15248047 1.67794922 7.51953125 2.05078125 C10.05247738 3.0200819 11.2716496 3.95009604 13 6 C12.01 6.33 11.02 6.66 10 7 C9.67 6.34 9.34 5.68 9 5 C6.47266765 4.34444881 6.47266765 4.34444881 4 4 C4 3.34 4 2.68 4 2 C2.68 1.67 1.36 1.34 0 1 C0 0.67 0 0.34 0 0 Z " fill="#85D49D" transform="translate(166,138)"/>
<path d="M0 0 C1.32 0.33 2.64 0.66 4 1 C1.69 3.31 -0.62 5.62 -3 8 C-3.33 7.01 -3.66 6.02 -4 5 C-3.34 5 -2.68 5 -2 5 C-2 4.01 -2 3.02 -2 2 C-1.34 1.34 -0.68 0.68 0 0 Z " fill="#9ED9B1" transform="translate(169,335)"/>
<path d="M0 0 C2.46301423 2.46301423 2.76766521 4.27360036 3.625 7.625 C3.88539063 8.62789063 4.14578125 9.63078125 4.4140625 10.6640625 C4.60742188 11.43492187 4.80078125 12.20578125 5 13 C1.17067834 9.66083151 1.17067834 9.66083151 0.390625 6.640625 C0.34421875 5.85171875 0.2978125 5.0628125 0.25 4.25 C0.19328125 3.45078125 0.1365625 2.6515625 0.078125 1.828125 C0.05234375 1.22484375 0.0265625 0.6215625 0 0 Z " fill="#8AD1A3" transform="translate(450,278)"/>
<path d="M0 0 C0.33 0 0.66 0 1 0 C1.08107583 1.93681161 1.13922475 3.8745934 1.1875 5.8125 C1.23970703 7.43091797 1.23970703 7.43091797 1.29296875 9.08203125 C1 12 1 12 -0.51171875 13.88671875 C-1.00285156 14.25410156 -1.49398437 14.62148438 -2 15 C-1.855625 14.195625 -1.71125 13.39125 -1.5625 12.5625 C-0.90311661 8.38640519 -0.43908647 4.20401941 0 0 Z " fill="#D0F3DE" transform="translate(124,265)"/>
<path d="M0 0 C3.39417765 3.12621626 5.6062718 5.56541027 7 10 C6.01 9.67 5.02 9.34 4 9 C3.67 7.35 3.34 5.7 3 4 C2.01 4 1.02 4 0 4 C0 2.68 0 1.36 0 0 Z " fill="#93DEA5" transform="translate(189,151)"/>
<path d="M0 0 C2.31 0.33 4.62 0.66 7 1 C7.66 2.65 8.32 4.3 9 6 C5.06326356 4.68775452 2.77280706 3.08089673 0 0 Z " fill="#A3DCBC" transform="translate(90,138)"/>
<path d="M0 0 C1.98 0 3.96 0 6 0 C4.37660195 1.70884005 2.70680947 3.37446717 1 5 C0.34 5 -0.32 5 -1 5 C-1 5.66 -1 6.32 -1 7 C-1.66 6.67 -2.32 6.34 -3 6 C-2.67 5.34 -2.34 4.68 -2 4 C-1.34 4 -0.68 4 0 4 C0 2.68 0 1.36 0 0 Z " fill="#AAE3BD" transform="translate(59,354)"/>
<path d="M0 0 C0.99 0.33 1.98 0.66 3 1 C1.71034824 2.37562854 0.37310707 3.70766393 -1 5 C-1.66 5 -2.32 5 -3 5 C-3 5.66 -3 6.32 -3 7 C-3.66 7 -4.32 7 -5 7 C-5 6.01 -5 5.02 -5 4 C-4.01 4 -3.02 4 -2 4 C-2 3.01 -2 2.02 -2 1 C-1.34 0.67 -0.68 0.34 0 0 Z " fill="#A9E0BF" transform="translate(190,316)"/>
<path d="M0 0 C2.92879371 0.62759865 5.36095629 1.58622659 8 3 C6.02 3.99 6.02 3.99 4 5 C2 3.625 2 3.625 0 2 C0 1.34 0 0.68 0 0 Z " fill="#B2E2C1" transform="translate(193,246)"/>
<path d="M0 0 C0.66 0.33 1.32 0.66 2 1 C-0.475 4.465 -0.475 4.465 -3 8 C-3.66 7.67 -4.32 7.34 -5 7 C-4.1875 5.0625 -4.1875 5.0625 -3 3 C-2.01 2.67 -1.02 2.34 0 2 C0 1.34 0 0.68 0 0 Z " fill="#A3DFB5" transform="translate(188,214)"/>
<path d="M0 0 C5.445 1.485 5.445 1.485 11 3 C11 3.33 11 3.66 11 4 C7.625 4.625 7.625 4.625 4 5 C2 3 2 3 0 0 Z " fill="#9BD5B3" transform="translate(82,114)"/>
<path d="M0 0 C0.33 1.32 0.66 2.64 1 4 C-0.65 4.66 -2.3 5.32 -4 6 C-4 6.66 -4 7.32 -4 8 C-4.66 7.67 -5.32 7.34 -6 7 C-5.67 6.34 -5.34 5.68 -5 5 C-4.34 5 -3.68 5 -3 5 C-2.5359375 4.0409375 -2.5359375 4.0409375 -2.0625 3.0625 C-1 1 -1 1 0 0 Z " fill="#97D5AC" transform="translate(159,304)"/>
<path d="M0 0 C0.99 0 1.98 0 3 0 C3 0.66 3 1.32 3 2 C3.99 2.33 4.98 2.66 6 3 C6.6875 5.0625 6.6875 5.0625 7 7 C6.34 7 5.68 7 5 7 C5 6.34 5 5.68 5 5 C4.360625 4.731875 3.72125 4.46375 3.0625 4.1875 C1 3 1 3 0 0 Z " fill="#98DAAC" transform="translate(116,245)"/>
<path d="M0 0 C5 2 5 2 10 4 C10 4.33 10 4.66 10 5 C6.42195344 5.19878036 4.00791911 5.04108797 1 3 C0.67 2.01 0.34 1.02 0 0 Z " fill="#8AD1A7" transform="translate(183,241)"/>
<path d="M0 0 C0.66 1.32 1.32 2.64 2 4 C1.01 4.495 1.01 4.495 0 5 C-0.33 5.66 -0.66 6.32 -1 7 C-2.32 6.67 -3.64 6.34 -5 6 C-3.35 4.02 -1.7 2.04 0 0 Z " fill="#B2E2C1" transform="translate(141,199)"/>
<path d="M0 0 C6.625 -0.25 6.625 -0.25 10 2 C9.67 2.99 9.34 3.98 9 5 C8.01 4.34 7.02 3.68 6 3 C6 2.34 6 1.68 6 1 C4.02 1 2.04 1 0 1 C0 0.67 0 0.34 0 0 Z " fill="#8CD5AB" transform="translate(300,252)"/>
<path d="M0 0 C-1.32 1.65 -2.64 3.3 -4 5 C-4.66 4.67 -5.32 4.34 -6 4 C-6 2.68 -6 1.36 -6 0 C-3 -1 -3 -1 0 0 Z " fill="#9DDBA8" transform="translate(55,364)"/>
<path d="M0 0 C0.33 0 0.66 0 1 0 C1.1875 2.875 1.1875 2.875 1 6 C0.01 6.66 -0.98 7.32 -2 8 C-2 6.02 -2 4.04 -2 2 C-1.34 2 -0.68 2 0 2 C0 1.34 0 0.68 0 0 Z " fill="#C5ECD3" transform="translate(136,353)"/>
<path d="M0 0 C0.99928333 2.698065 1.03624754 3.88010429 0.1875 6.6875 C-1 9 -1 9 -3 10 C-2.39009109 6.44219804 -1.4216319 3.3171411 0 0 Z " fill="#8BD0A5" transform="translate(42,349)"/>
<path d="M0 0 C0.99 0.33 1.98 0.66 3 1 C1.63016497 4.16115776 1.0109362 4.9927092 -2 7 C-1.42415568 4.61435923 -0.77772405 2.33317216 0 0 Z " fill="#A6E4B4" transform="translate(195,309)"/>
<path d="M0 0 C0.99 0.495 0.99 0.495 2 1 C2.40729228 3.32156597 2.74438677 5.6568787 3 8 C2.01 7.67 1.02 7.34 0 7 C0 4.69 0 2.38 0 0 Z " fill="#BAEAC9" transform="translate(447,271)"/>
<path d="M0 0 C-0.66 0 -1.32 0 -2 0 C-2.33 0.99 -2.66 1.98 -3 3 C-4.98 3 -6.96 3 -9 3 C-8.01 2.67 -7.02 2.34 -6 2 C-6 1.34 -6 0.68 -6 0 C-3 -1 -3 -1 0 0 Z " fill="#B0E7BA" transform="translate(291,200)"/>
<path d="" fill="#00FF00" transform="translate(0,0)"/>
<path d="" fill="#00FF00" transform="translate(0,0)"/>
<path d="" fill="#00FF00" transform="translate(0,0)"/>
<path d="" fill="#00FF00" transform="translate(0,0)"/>
<path d="" fill="#00FF00" transform="translate(0,0)"/>
<path d="" fill="#00FF00" transform="translate(0,0)"/>
<path d="" fill="#00FF00" transform="translate(0,0)"/>
<path d="" fill="#00FF00" transform="translate(0,0)"/>
<path d="" fill="#00FF00" transform="translate(0,0)"/>
<path d="" fill="#00FF00" transform="translate(0,0)"/>
<path d="" fill="#00FF00" transform="translate(0,0)"/>
<path d="" fill="#00FF00" transform="translate(0,0)"/>
<path d="" fill="#00FF00" transform="translate(0,0)"/>
<path d="" fill="#00FF00" transform="translate(0,0)"/>
<path d="" fill="#00FF00" transform="translate(0,0)"/>
<path d="" fill="#00FF00" transform="translate(0,0)"/>
<path d="" fill="#00FF00" transform="translate(0,0)"/>
<path d="" fill="#00FF00" transform="translate(0,0)"/>
<path d="" fill="#00FF00" transform="translate(0,0)"/>
<path d="" fill="#00FF00" transform="translate(0,0)"/>
<path d="" fill="#00FF00" transform="translate(0,0)"/>
<path d="" fill="#00FF00" transform="translate(0,0)"/>
<path d="" fill="#00FF00" transform="translate(0,0)"/>
<path d="" fill="#00FF00" transform="translate(0,0)"/>
<path d="" fill="#00FF00" transform="translate(0,0)"/>
<path d="" fill="#00FF00" transform="translate(0,0)"/>
<path d="" fill="#00FF00" transform="translate(0,0)"/>
<path d="" fill="#00FF00" transform="translate(0,0)"/>
<path d="" fill="#00FF00" transform="translate(0,0)"/>
<path d="" fill="#00FF00" transform="translate(0,0)"/>
<path d="" fill="#00FF00" transform="translate(0,0)"/>
<path d="" fill="#00FF00" transform="translate(0,0)"/>
<path d="" fill="#00FF00" transform="translate(0,0)"/>
<path d="" fill="#00FF00" transform="translate(0,0)"/>
<path d="" fill="#00FF00" transform="translate(0,0)"/>
<path d="" fill="#00FF00" transform="translate(0,0)"/>
<path d="" fill="#00FF00" transform="translate(0,0)"/>
<path d="" fill="#00FF00" transform="translate(0,0)"/>
<path d="" fill="#00FF00" transform="translate(0,0)"/>
<path d="" fill="#00FF00" transform="translate(0,0)"/>
<path d="" fill="#00FF00" transform="translate(0,0)"/>
<path d="" fill="#00FF00" transform="translate(0,0)"/>
<path d="" fill="#00FF00" transform="translate(0,0)"/>
<path d="" fill="#00FF00" transform="translate(0,0)"/>
<path d="" fill="#00FF00" transform="translate(0,0)"/>
<path d="" fill="#00FF00" transform="translate(0,0)"/>
<path d="" fill="#00FF00" transform="translate(0,0)"/>
<path d="" fill="#00FF00" transform="translate(0,0)"/>
<path d="" fill="#00FF00" transform="translate(0,0)"/>
<path d="" fill="#00FF00" transform="translate(0,0)"/>
<path d="" fill="#00FF00" transform="translate(0,0)"/>
<path d="" fill="#00FF00" transform="translate(0,0)"/>
<path d="" fill="#00FF00" transform="translate(0,0)"/>
<path d="" fill="#00FF00" transform="translate(0,0)"/>
<path d="" fill="#00FF00" transform="translate(0,0)"/>
<path d="" fill="#00FF00" transform="translate(0,0)"/>
<path d="" fill="#00FF00" transform="translate(0,0)"/>
<path d="" fill="#00FF00" transform="translate(0,0)"/>
<path d="" fill="#00FF00" transform="translate(0,0)"/>
<path d="" fill="#00FF00" transform="translate(0,0)"/>
<path d="" fill="#00FF00" transform="translate(0,0)"/>
<path d="" fill="#00FF00" transform="translate(0,0)"/>
<path d="" fill="#00FF00" transform="translate(0,0)"/>
<path d="" fill="#00FF00" transform="translate(0,0)"/>
<path d="" fill="#00FF00" transform="translate(0,0)"/>
<path d="" fill="#00FF00" transform="translate(0,0)"/>
<path d="" fill="#00FF00" transform="translate(0,0)"/>
<path d="" fill="#00FF00" transform="translate(0,0)"/>
<path d="" fill="#00FF00" transform="translate(0,0)"/>
<path d="" fill="#00FF00" transform="translate(0,0)"/>
</svg>
