<?xml version="1.0" encoding="UTF-8"?>
<svg version="1.1" xmlns="http://www.w3.org/2000/svg" width="500" height="500">
<path d="M0 0 C2.35146978 3.52720467 2.39978974 5.46413045 2.7109375 9.66015625 C2.81959807 11.01647656 2.92874782 12.37275775 3.03833008 13.72900391 C3.09276276 14.43712219 3.14719543 15.14524048 3.20327759 15.87481689 C4.83656583 36.68233433 7.17534004 56.97251513 19.8984375 74.328125 C21 76 21 76 21 78 C21.66 78 22.32 78 23 78 C24.0859375 79.43359375 24.0859375 79.43359375 25.375 81.4375 C35.02379506 94.58862211 51.9116723 101.24204473 66.72265625 106.734375 C77.62073065 110.94292817 88.55084926 116.0684982 98 123 C98 123.66 98 124.32 98 125 C98.556875 125.226875 99.11375 125.45375 99.6875 125.6875 C103.96311877 128.11420254 107.13916819 131.43250373 109 136 C109.66 136 110.32 136 111 136 C117.4705757 146.99997869 120.07591894 158.38713492 117.3125 171.1875 C115.2099728 178.24065861 111.45637419 185.16061313 107 191 C106.34 191 105.68 191 105 191 C104.731875 191.598125 104.46375 192.19625 104.1875 192.8125 C103.00082594 194.99847854 101.90400887 196.41332594 100 198 C99.34 198 98.68 198 98 198 C98 198.66 98 199.32 98 200 C92.70588235 204 92.70588235 204 89 204 C87.97341597 200.92024791 87.90082247 198.66337309 87.8125 195.4375 C87.24705194 188.13968592 84.58225307 182.43669877 79.26953125 177.33984375 C77.86871156 176.19855835 76.43725249 175.09504951 75 174 C75 173.34 75 172.68 75 172 C74.12190674 171.71769531 73.24381348 171.43539062 72.33911133 171.14453125 C69.33822839 170.11593293 66.4798807 168.95516245 63.57421875 167.6875 C56.45706585 164.69357662 49.16565459 162.32909604 41.8125 160 C40.42959415 159.55725762 39.04678239 159.11422125 37.6640625 158.67089844 C30.63846486 156.42616541 23.59615369 154.2619723 16.5 152.25 C-6.71360597 145.60071791 -31.59860745 134.12785492 -48 116 C-48 115.34 -48 114.68 -48 114 C-48.66 114 -49.32 114 -50 114 C-51.4375 111.98828125 -51.4375 111.98828125 -53 109.3125 C-53.515625 108.44238281 -54.03125 107.57226562 -54.5625 106.67578125 C-57.72296246 100.79285521 -58.36471735 96.29410184 -58.375 89.6875 C-58.39949219 88.87087891 -58.42398438 88.05425781 -58.44921875 87.21289062 C-58.50819632 74.87674855 -50.44303815 66.52062063 -42.16796875 58.06689453 C-38.63265237 54.52082829 -35.04077697 51.03276232 -31.43847656 47.55493164 C-22.28749967 38.69548775 -13.72382489 29.50829027 -8.1875 17.875 C-7.63191406 16.71355469 -7.07632813 15.55210937 -6.50390625 14.35546875 C-4.79469733 10.54193508 -3.19457954 6.70555331 -1.7265625 2.79296875 C-1 1 -1 1 0 0 Z " fill="#F8F8F8" transform="translate(201,123)"/>
<path d="M0 0 C17.15177838 -1.97408693 27.63463988 2.02093451 42.32275391 10.55126953 C47.44265627 13.32178755 52.87983845 15.0523398 58.40625 16.81640625 C62 18 62 18 65.6328125 19.55859375 C68.55763865 20.8106365 71.29947877 21.72419284 74.375 22.5 C77.68314217 23.33952853 80.90315241 24.29694854 84.12768555 25.40869141 C88.70296101 26.94094166 93.30956322 28.16607464 97.99609375 29.3046875 C99.24471947 29.61347336 99.24471947 29.61347336 100.51856995 29.92849731 C103.15737915 30.58077407 105.79730615 31.22835261 108.4375 31.875 C159.92129623 44.50628228 159.92129623 44.50628228 181.5 54.625 C182.24628662 54.97272461 182.99257324 55.32044922 183.76147461 55.67871094 C188.87648287 58.1776996 193.81822095 61.09822567 198 65 C198 65.66 198 66.32 198 67 C198.66 67 199.32 67 200 67 C200 67.66 200 68.32 200 69 C200.556875 69.226875 201.11375 69.45375 201.6875 69.6875 C204.66159588 71.37550036 206.72008865 73.46676517 209 76 C209 76.66 209 77.32 209 78 C209.66 78 210.32 78 211 78 C211.66 79.98 212.32 81.96 213 84 C213.66 84 214.32 84 215 84 C226.90680884 103.98642912 224.13536345 128.05628725 218.8984375 149.60546875 C216.51405347 158.96057153 213.31289668 167.34941987 209 176 C207.96668059 178.321113 206.98109494 180.65627321 206 183 C205.34 183 204.68 183 204 183 C203.88527344 183.57234375 203.77054688 184.1446875 203.65234375 184.734375 C202.93817644 187.21471656 201.92692128 189.06368697 200.5625 191.25 C200.13066406 191.95640625 199.69882813 192.6628125 199.25390625 193.390625 C198.63322266 194.18726563 198.63322266 194.18726563 198 195 C197.34 195 196.68 195 196 195 C195.773125 195.556875 195.54625 196.11375 195.3125 196.6875 C193.64103234 199.63246684 191.44723648 201.68156544 189 204 C188.01 203.67 187.02 203.34 186 203 C186.2165625 202.08863281 186.433125 201.17726562 186.65625 200.23828125 C191.31240388 179.19721577 190.76661389 156.1932301 179.34375 137.25390625 C178.30251495 135.71906685 177.23663991 134.2003751 176.13671875 132.70703125 C175 131 175 131 175 129 C174.34 129 173.68 129 173 129 C171.625 127.53125 171.625 127.53125 170 125.5 C161.29949337 115.35238652 149.88796657 108.79757976 138 103 C138 102.34 138 101.68 138 101 C137.27216309 100.87866699 136.54432617 100.75733398 135.79443359 100.63232422 C133.02304327 100.00521423 130.83700537 99.12486328 128.2890625 97.8828125 C127.38607422 97.44662598 126.48308594 97.01043945 125.55273438 96.56103516 C124.10350586 95.85019775 124.10350586 95.85019775 122.625 95.125 C120.54448835 94.11413553 118.46375296 93.10373144 116.3828125 92.09375 C115.32094727 91.57683594 114.25908203 91.05992188 113.16503906 90.52734375 C110.18078056 89.08723875 107.18456595 87.67772503 104.1796875 86.28125 C83.35694051 76.57576263 63.83483112 65.31866535 44.90332031 52.3059082 C43.27790201 51.19067443 41.64015898 50.09343932 40 49 C40 48.34 40 47.68 40 47 C39.401875 46.71125 38.80375 46.4225 38.1875 46.125 C36 45 36 45 33 43 C33 42.34 33 41.68 33 41 C32.01 40.67 31.02 40.34 30 40 C30 39.34 30 38.68 30 38 C29.34 38 28.68 38 28 38 C28 37.34 28 36.68 28 36 C27.34 36 26.68 36 26 36 C26 35.34 26 34.68 26 34 C25.34 34 24.68 34 24 34 C24 33.34 24 32.68 24 32 C23.34 32 22.68 32 22 32 C22 31.34 22 30.68 22 30 C21.34 30 20.68 30 20 30 C18.2734375 28.1015625 18.2734375 28.1015625 16.375 25.625 C15.74335937 24.81289063 15.11171875 24.00078125 14.4609375 23.1640625 C13 21 13 21 13 19 C12.34 19 11.68 19 11 19 C9.61509256 17.1563971 8.31611151 15.24777736 7.0625 13.3125 C6.37285156 12.25675781 5.68320312 11.20101563 4.97265625 10.11328125 C0 2.26534653 0 2.26534653 0 0 Z " fill="#F7F7F7" transform="translate(54,0)"/>
<path d="M0 0 C0.99 0 1.98 0 3 0 C1.68277405 5.38676087 -0.283722 9.69367013 -3.125 14.4375 C-3.49753906 15.07365234 -3.87007812 15.70980469 -4.25390625 16.36523438 C-5.16234499 17.91423889 -6.08019297 19.45771891 -7 21 C-7.66 21 -8.32 21 -9 21 C-9.66 22.98 -10.32 24.96 -11 27 C-11.66 27 -12.32 27 -13 27 C-13.309375 27.78375 -13.61875 28.5675 -13.9375 29.375 C-15 32 -15 32 -16 34 C-16.66 34 -17.32 34 -18 34 C-18.185625 34.680625 -18.37125 35.36125 -18.5625 36.0625 C-20.2455387 39.50175299 -22.32534309 41.48969465 -25.0703125 44.109375 C-27.01465703 46.01436033 -28.78952402 47.99796797 -30.5625 50.0625 C-33.57524111 53.54343736 -36.62729867 56.86260341 -40 60 C-40.66 60 -41.32 60 -42 60 C-42 60.66 -42 61.32 -42 62 C-42.66 62 -43.32 62 -44 62 C-44 62.66 -44 63.32 -44 64 C-44.66 64 -45.32 64 -46 64 C-46 64.66 -46 65.32 -46 66 C-47.34521484 67.23681641 -47.34521484 67.23681641 -49.2109375 68.6015625 C-49.87867188 69.09140625 -50.54640625 69.58125 -51.234375 70.0859375 C-51.94078125 70.59382813 -52.6471875 71.10171875 -53.375 71.625 C-54.42300781 72.3984375 -54.42300781 72.3984375 -55.4921875 73.1875 C-60.73689649 77 -60.73689649 77 -63 77 C-63 77.66 -63 78.32 -63 79 C-66 81 -66 81 -69 81 C-69 81.66 -69 82.32 -69 83 C-90.09595915 94.79943478 -111.86246625 105.25048019 -136 109 C-137.18722656 109.185625 -138.37445313 109.37125 -139.59765625 109.5625 C-169.0437551 113.68551767 -204.67521164 113.30788096 -232 100 C-232 97 -232 97 -231 95 C-230.34 95 -229.68 95 -229 95 C-228.74605469 94.443125 -228.49210937 93.88625 -228.23046875 93.3125 C-226.81735804 90.65674907 -225.12897344 88.39817319 -223.3125 86 C-217.84198897 78.55015861 -212.63472621 70.78503898 -209.671875 61.96875 C-208.90488895 59.7213025 -207.98588328 57.56270808 -207.0625 55.375 C-202.1078448 43.05480373 -199.37779541 30.10590579 -197.46484375 17.015625 C-197.04983574 14.32330416 -196.55785808 11.66587047 -196 9 C-195.34 9 -194.68 9 -194 9 C-192 12 -192 12 -192 15 C-191.34 15 -190.68 15 -190 15 C-188.66796875 16.7578125 -188.66796875 16.7578125 -187.1875 19.125 C-183.03947444 26.01970568 -183.03947444 26.01970568 -177 31 C-177 31.66 -177 32.32 -177 33 C-176.34 33 -175.68 33 -175 33 C-175 33.66 -175 34.32 -175 35 C-174.319375 35.226875 -173.63875 35.45375 -172.9375 35.6875 C-170 37 -170 37 -166.84765625 39.3515625 C-162.96937185 42.16348404 -158.94161664 43.9434305 -154.5 45.6875 C-153.77941406 45.98205078 -153.05882812 46.27660156 -152.31640625 46.58007812 C-124.39621262 57.81379075 -96.01769157 53.20538701 -68.63671875 42.7109375 C-66.04228885 41.55348319 -63.52569773 40.30032213 -61 39 C-59.82179688 38.43925781 -58.64359375 37.87851563 -57.4296875 37.30078125 C-37.66792927 27.83934441 -15.62631831 15.62631831 0 0 Z " fill="#F5F5F6" transform="translate(485,108)"/>
<path d="M0 0 C1.175625 0.7425 1.175625 0.7425 2.375 1.5 C2.375 2.16 2.375 2.82 2.375 3.5 C2.9525 3.685625 3.53 3.87125 4.125 4.0625 C7.80011889 6.41049262 9.64057422 10.21838393 10.9609375 14.3203125 C12.68725062 23.40788536 11.96524568 31.53547034 7.4140625 39.61328125 C3.67318074 44.90928052 -0.82170542 49.17703488 -5.625 53.5 C-6.34945312 54.16644531 -7.07390625 54.83289063 -7.8203125 55.51953125 C-12.27620023 59.5 -12.27620023 59.5 -14.625 59.5 C-14.625 60.16 -14.625 60.82 -14.625 61.5 C-16.234375 63.0859375 -16.234375 63.0859375 -18.375 64.875 C-20.69403702 66.83757727 -22.87719284 68.7588295 -25 70.9375 C-26.625 72.5 -26.625 72.5 -28.625 72.5 C-28.625 73.16 -28.625 73.82 -28.625 74.5 C-29.285 74.5 -29.945 74.5 -30.625 74.5 C-30.625 75.16 -30.625 75.82 -30.625 76.5 C-31.285 76.5 -31.945 76.5 -32.625 76.5 C-32.625 77.16 -32.625 77.82 -32.625 78.5 C-33.285 78.5 -33.945 78.5 -34.625 78.5 C-34.8725 79.056875 -35.12 79.61375 -35.375 80.1875 C-36.85424818 82.92410913 -38.55967439 85.17650869 -40.625 87.5 C-41.285 87.5 -41.945 87.5 -42.625 87.5 C-42.625 88.16 -42.625 88.82 -42.625 89.5 C-43.285 89.5 -43.945 89.5 -44.625 89.5 C-44.625 90.16 -44.625 90.82 -44.625 91.5 C-45.285 91.5 -45.945 91.5 -46.625 91.5 C-46.625 92.16 -46.625 92.82 -46.625 93.5 C-47.285 93.5 -47.945 93.5 -48.625 93.5 C-49.12 95.48 -49.12 95.48 -49.625 97.5 C-50.285 97.5 -50.945 97.5 -51.625 97.5 C-52.285 99.15 -52.945 100.8 -53.625 102.5 C-54.285 102.5 -54.945 102.5 -55.625 102.5 C-55.85832031 103.02335937 -56.09164062 103.54671875 -56.33203125 104.0859375 C-58.05249059 107.29815464 -60.17418383 110.18411894 -62.3125 113.125 C-63.22029155 114.38654647 -64.12784268 115.64826597 -65.03515625 116.91015625 C-65.89828851 118.10687831 -66.76155792 119.30350146 -67.625 120.5 C-79.6160034 137.14205926 -88.82143719 154.58227198 -96.625 173.5 C-97.615 173.5 -98.605 173.5 -99.625 173.5 C-103.79609835 136.33253432 -97.84986685 90.97474124 -80.625 57.5 C-79.965 57.5 -79.305 57.5 -78.625 57.5 C-78.51800781 56.94054687 -78.41101563 56.38109375 -78.30078125 55.8046875 C-76.97938364 51.298187 -74.10470675 47.45261527 -71.625 43.5 C-71.22410156 42.84515625 -70.82320312 42.1903125 -70.41015625 41.515625 C-69.54090664 40.13794638 -68.59131254 38.81142417 -67.625 37.5 C-66.965 37.5 -66.305 37.5 -65.625 37.5 C-65.398125 36.96375 -65.17125 36.4275 -64.9375 35.875 C-56.49758105 20.60276571 -37.5791771 10.46332867 -22.625 2.5 C-21.79097656 2.04367187 -20.95695312 1.58734375 -20.09765625 1.1171875 C-13.39268731 -2.25297264 -7.00265531 -2.89765047 0 0 Z " fill="#F5F5F5" transform="translate(270.625,302.5)"/>
<path d="M0 0 C1.79429238 4.16877511 0.03723327 7.75223451 -1.4375 11.75 C-1.70973389 12.50007324 -1.98196777 13.25014648 -2.26245117 14.02294922 C-8.23145185 29.99274683 -16.95400456 48.68705729 -29 61 C-29.66 61 -30.32 61 -31 61 C-31 61.66 -31 62.32 -31 63 C-31.66 63 -32.32 63 -33 63 C-33 63.66 -33 64.32 -33 65 C-33.66 65 -34.32 65 -35 65 C-35 65.66 -35 66.32 -35 67 C-35.66 67 -36.32 67 -37 67 C-37 67.66 -37 68.32 -37 69 C-38.50390625 70.515625 -38.50390625 70.515625 -40.5625 72.25 C-41.65111328 73.17232422 -41.65111328 73.17232422 -42.76171875 74.11328125 C-43.86966797 75.04720703 -43.86966797 75.04720703 -45 76 C-45.66644531 76.59167969 -46.33289063 77.18335938 -47.01953125 77.79296875 C-47.63183594 78.33566406 -48.24414062 78.87835938 -48.875 79.4375 C-49.42929688 79.93121094 -49.98359375 80.42492187 -50.5546875 80.93359375 C-52 82 -52 82 -54 82 C-54 82.66 -54 83.32 -54 84 C-55.65483608 85.49877503 -57.37590512 86.92488473 -59.125 88.3125 C-60.1253125 89.11429687 -61.125625 89.91609375 -62.15625 90.7421875 C-63.0946875 91.48726563 -64.033125 92.23234375 -65 93 C-69.05452803 96.02138538 -69.05452803 96.02138538 -72 100 C-72.66 100 -73.32 100 -74 100 C-74 100.66 -74 101.32 -74 102 C-74.66 102 -75.32 102 -76 102 C-76 102.66 -76 103.32 -76 104 C-76.66 104 -77.32 104 -78 104 C-78 104.66 -78 105.32 -78 106 C-78.66 106 -79.32 106 -80 106 C-80 106.66 -80 107.32 -80 108 C-81.375 109.625 -81.375 109.625 -83 111 C-83.66 111 -84.32 111 -85 111 C-85 111.66 -85 112.32 -85 113 C-85.66 113 -86.32 113 -87 113 C-87.24621094 113.55816406 -87.49242187 114.11632812 -87.74609375 114.69140625 C-89.23174199 117.42666516 -91.04255193 119.5684251 -93.0625 121.9375 C-98.11331779 128.03080658 -102.61948863 134.41437116 -107 141 C-107.4031543 141.60344238 -107.80630859 142.20688477 -108.22167969 142.82861328 C-112.35313243 149.0388151 -116.20733097 155.06223732 -119 162 C-119.66 162 -120.32 162 -121 162 C-121.11472656 162.54398438 -121.22945312 163.08796875 -121.34765625 163.6484375 C-122.1253592 166.45189365 -123.23457412 168.97642136 -124.4375 171.625 C-124.86933594 172.58664062 -125.30117187 173.54828125 -125.74609375 174.5390625 C-127 177 -127 177 -129 179 C-133.68276479 169.63447041 -127.12001885 149.56589286 -125.125 139.875 C-124.88064209 138.67963623 -124.63628418 137.48427246 -124.38452148 136.25268555 C-122.10413062 125.60320837 -118.91769029 115.65575514 -114.26171875 105.8125 C-112.97122383 102.93585497 -111.92508265 100.03457507 -110.875 97.0625 C-105.61924778 83.16874493 -97.58107422 70.07642013 -89 58 C-88.27425781 56.95457031 -87.54851562 55.90914063 -86.80078125 54.83203125 C-82.71796813 49.04865683 -82.71796813 49.04865683 -81 47 C-80.34 47 -79.68 47 -79 47 C-78.71125 46.401875 -78.4225 45.80375 -78.125 45.1875 C-77 43 -77 43 -75 40 C-74.34 40 -73.68 40 -73 40 C-73 39.34 -73 38.68 -73 38 C-72.34 38 -71.68 38 -71 38 C-71 37.34 -71 36.68 -71 36 C-70.34 36 -69.68 36 -69 36 C-68.7421875 35.40703125 -68.484375 34.8140625 -68.21875 34.203125 C-66.90230105 31.82339035 -65.57419218 30.49021208 -63.5 28.75 C-62.8915625 28.22921875 -62.283125 27.7084375 -61.65625 27.171875 C-60 26 -60 26 -58 26 C-58 25.34 -58 24.68 -58 24 C-56.68 23.67 -55.36 23.34 -54 23 C-54 22.34 -54 21.68 -54 21 C-51.94597522 19.4807509 -49.91075753 18.10278555 -47.75 16.75 C-47.11465332 16.34885986 -46.47930664 15.94771973 -45.82470703 15.53442383 C-32.09331084 6.99040592 -16.52814147 -0.35480805 0 0 Z " fill="#F4F4F4" transform="translate(138,320)"/>
<path d="M0 0 C9.12751565 7.58211618 15.53031129 19.11975528 17.3125 30.875 C18.20686386 42.48706844 17.01521416 53.3964278 9.875 62.9375 C4.61168231 69.05010037 -0.71115037 73.37252187 -8.8984375 74.19921875 C-18.21249003 74.49217702 -25.10539873 72.99082886 -32.8125 67.75 C-33.43125 67.13125 -34.05 66.5125 -34.6875 65.875 C-34.6875 65.215 -34.6875 64.555 -34.6875 63.875 C-35.3475 63.875 -36.0075 63.875 -36.6875 63.875 C-38.43723612 61.76511236 -40.04398185 59.66924122 -41.625 57.4375 C-42.07866943 56.79949463 -42.53233887 56.16148926 -42.99975586 55.50415039 C-46.21355829 50.85285695 -48.54423754 46.45811666 -49.6875 40.875 C-49.95626953 39.72257812 -49.95626953 39.72257812 -50.23046875 38.546875 C-52.19910979 27.03789659 -50.82758126 15.54535542 -44.26953125 5.7578125 C-32.09262487 -8.73420941 -15.1351339 -10.88803 0 0 Z " fill="#F6F6F6" transform="translate(312.6875,12.125)"/>
<path d="M0 0 C4.52984135 0.51769615 6.49654169 2.18200092 10 5 C13.59749181 7.13206943 17.29362078 9.06498124 21 11 C21.93070313 11.49757813 22.86140625 11.99515625 23.8203125 12.5078125 C30.31995123 15.89045827 36.89633019 18.57790249 43.83276367 20.90820312 C45.58656467 21.52225923 47.29861265 22.25289633 49 23 C50 26 50 26 49.1015625 28.4609375 C43.68120665 39.15825355 36.95938663 48.72019219 29.5078125 58.09765625 C28.43824496 59.44708472 27.41630728 60.83488387 26.4296875 62.24609375 C25.95789063 62.82488281 25.48609375 63.40367187 25 64 C24.34 64 23.68 64 23 64 C22.74331543 64.58193115 22.48663086 65.1638623 22.22216797 65.76342773 C20.8877513 68.20541557 19.41673627 69.82650142 17.4453125 71.78515625 C16.74792969 72.48060547 16.05054688 73.17605469 15.33203125 73.89257812 C14.60371094 74.60865234 13.87539062 75.32472656 13.125 76.0625 C12.40441406 76.78244141 11.68382812 77.50238281 10.94140625 78.24414062 C2.11237813 87 2.11237813 87 -1 87 C-1 87.66 -1 88.32 -1 89 C-3.475 89.99 -3.475 89.99 -6 91 C-6 91.66 -6 92.32 -6 93 C-11.41176471 97 -11.41176471 97 -14 97 C-14 97.66 -14 98.32 -14 99 C-16.10019014 100.47309111 -18.17767729 101.81309635 -20.375 103.125 C-20.97828125 103.49753906 -21.5815625 103.87007813 -22.203125 104.25390625 C-26.72965316 107 -26.72965316 107 -29 107 C-27.38500083 101.79611379 -25.52968917 96.85310319 -23.3125 91.875 C-11.48512202 64.65138434 -4.26768954 35.61704884 -1.359375 6.09765625 C-1 3 -1 3 0 0 Z " fill="#F1F1F1" transform="translate(160,260)"/>
<path d="M0 0 C0.33 0.99 0.66 1.98 1 3 C-6 10 -13 17 -20 24 C-20.99 23.67 -21.98 23.34 -23 23 C-15.41 15.41 -7.82 7.82 0 0 Z " fill="#9D9CA1" transform="translate(176,164)"/>
<path d="M0 0 C2.20914 3.31371 2.22481553 4.3446021 2.125 8.1875 C2.10695312 9.08855469 2.08890625 9.98960937 2.0703125 10.91796875 C2.03550781 11.94857422 2.03550781 11.94857422 2 13 C0 12 0 12 -1 9 C-1.66 10.32 -2.32 11.64 -3 13 C-3.66 13 -4.32 13 -5 13 C-4.54803755 11.39402675 -4.08817673 9.79027492 -3.625 8.1875 C-3.36976563 7.29417969 -3.11453125 6.40085938 -2.8515625 5.48046875 C-2 3 -2 3 0 0 Z " fill="#99979B" transform="translate(201,123)"/>
<path d="M0 0 C0.33 0.99 0.66 1.98 1 3 C-0.78572252 4.83947337 -2.57802449 6.67157741 -4.375 8.5 C-4.88289062 9.02464844 -5.39078125 9.54929687 -5.9140625 10.08984375 C-7.23832604 11.43153181 -8.61605865 12.71995815 -10 14 C-10.66 14 -11.32 14 -12 14 C-9.48489058 8.05519592 -5.09632389 3.7858406 0 0 Z " fill="#B9B9BD" transform="translate(217,326)"/>
<path d="M0 0 C0.33 0 0.66 0 1 0 C1.33 2.31 1.66 4.62 2 7 C2.99 7.33 3.98 7.66 5 8 C3.68 10.64 2.36 13.28 1 16 C0.34 15.34 -0.32 14.68 -1 14 C-0.9765625 10.7421875 -0.9765625 10.7421875 -0.625 6.875 C-0.51414062 5.59367187 -0.40328125 4.31234375 -0.2890625 2.9921875 C-0.19367187 2.00476563 -0.09828125 1.01734375 0 0 Z " fill="#A7A6AB" transform="translate(9,483)"/>
<path d="M0 0 C0.33 0 0.66 0 1 0 C1.18451025 9.41002278 1.18451025 9.41002278 0 14 C0.66 14.33 1.32 14.66 2 15 C0.02 15.99 0.02 15.99 -2 17 C-3.30211046 13.09366863 -2.47812346 10.80461827 -1.5625 6.8125 C-1.27503906 5.54019531 -0.98757812 4.26789063 -0.69140625 2.95703125 C-0.46324219 1.98121094 -0.23507813 1.00539062 0 0 Z " fill="#85848A" transform="translate(243,187)"/>
<path d="M0 0 C0.66 0.33 1.32 0.66 2 1 C-1.80411834 4.91939465 -5.81576108 8.49102731 -10 12 C-10.33 11.34 -10.66 10.68 -11 10 C-10.34 10 -9.68 10 -9 10 C-8.74476562 9.40703125 -8.48953125 8.8140625 -8.2265625 8.203125 C-6.88183502 5.78775462 -5.50785633 4.48788294 -3.375 2.75 C-2.74335937 2.22921875 -2.11171875 1.7084375 -1.4609375 1.171875 C-0.73777344 0.59179688 -0.73777344 0.59179688 0 0 Z " fill="#98989A" transform="translate(78,346)"/>
<path d="M0 0 C1 4 1 4 0 6 C0.99 6.33 1.98 6.66 3 7 C1.02 7.66 -0.96 8.32 -3 9 C-2.01 6.03 -1.02 3.06 0 0 Z " fill="#8F8F91" transform="translate(134,358)"/>
<path d="M0 0 C1.98 0 3.96 0 6 0 C6.33 0.99 6.66 1.98 7 3 C7.99 3 8.98 3 10 3 C10.33 3.99 10.66 4.98 11 6 C7.2089881 4.55049545 3.6125362 2.84827434 0 1 C0 0.67 0 0.34 0 0 Z " fill="#939294" transform="translate(192,102)"/>
<path d="M0 0 C0.33 0 0.66 0 1 0 C1.33 1.98 1.66 3.96 2 6 C2.66 5.67 3.32 5.34 4 5 C4.66 5.66 5.32 6.32 6 7 C3 9 3 9 0 9 C-1.15941038 5.52176885 -0.70820884 3.54104422 0 0 Z " fill="#96969A" transform="translate(290,318)"/>
<path d="M0 0 C-0.66 2.31 -1.32 4.62 -2 7 C-2.66 6.01 -3.32 5.02 -4 4 C-4.99 4 -5.98 4 -7 4 C-3.375 0 -3.375 0 0 0 Z " fill="#747379" transform="translate(488,108)"/>
<path d="M0 0 C0.66 0.33 1.32 0.66 2 1 C1.01 2.485 1.01 2.485 0 4 C-0.66 4 -1.32 4 -2 4 C-2.33 4.66 -2.66 5.32 -3 6 C-3.99 5.34 -4.98 4.68 -6 4 C-4.02 2.68 -2.04 1.36 0 0 Z " fill="#A7A5A9" transform="translate(98,332)"/>
<path d="M0 0 C-0.33 0.99 -0.66 1.98 -1 3 C-3.97 3 -6.94 3 -10 3 C-7.02931146 0.02931146 -4.09966187 0 0 0 Z " fill="#939495" transform="translate(400,157)"/>
<path d="" fill="#000000" transform="translate(0,0)"/>
<path d="" fill="#000000" transform="translate(0,0)"/>
<path d="" fill="#000000" transform="translate(0,0)"/>
<path d="" fill="#000000" transform="translate(0,0)"/>
<path d="" fill="#000000" transform="translate(0,0)"/>
<path d="" fill="#000000" transform="translate(0,0)"/>
<path d="" fill="#000000" transform="translate(0,0)"/>
<path d="" fill="#000000" transform="translate(0,0)"/>
<path d="" fill="#000000" transform="translate(0,0)"/>
<path d="" fill="#000000" transform="translate(0,0)"/>
<path d="" fill="#000000" transform="translate(0,0)"/>
<path d="" fill="#000000" transform="translate(0,0)"/>
<path d="" fill="#000000" transform="translate(0,0)"/>
<path d="" fill="#000000" transform="translate(0,0)"/>
<path d="" fill="#000000" transform="translate(0,0)"/>
<path d="" fill="#000000" transform="translate(0,0)"/>
<path d="" fill="#000000" transform="translate(0,0)"/>
<path d="" fill="#000000" transform="translate(0,0)"/>
<path d="" fill="#000000" transform="translate(0,0)"/>
<path d="" fill="#000000" transform="translate(0,0)"/>
<path d="" fill="#000000" transform="translate(0,0)"/>
<path d="" fill="#000000" transform="translate(0,0)"/>
<path d="" fill="#000000" transform="translate(0,0)"/>
<path d="" fill="#000000" transform="translate(0,0)"/>
<path d="" fill="#000000" transform="translate(0,0)"/>
<path d="" fill="#000000" transform="translate(0,0)"/>
<path d="" fill="#000000" transform="translate(0,0)"/>
<path d="" fill="#000000" transform="translate(0,0)"/>
<path d="" fill="#000000" transform="translate(0,0)"/>
<path d="" fill="#000000" transform="translate(0,0)"/>
<path d="" fill="#000000" transform="translate(0,0)"/>
<path d="" fill="#000000" transform="translate(0,0)"/>
<path d="" fill="#000000" transform="translate(0,0)"/>
<path d="" fill="#000000" transform="translate(0,0)"/>
<path d="" fill="#000000" transform="translate(0,0)"/>
<path d="" fill="#000000" transform="translate(0,0)"/>
<path d="" fill="#000000" transform="translate(0,0)"/>
<path d="" fill="#000000" transform="translate(0,0)"/>
<path d="" fill="#000000" transform="translate(0,0)"/>
<path d="" fill="#000000" transform="translate(0,0)"/>
<path d="" fill="#000000" transform="translate(0,0)"/>
<path d="" fill="#000000" transform="translate(0,0)"/>
<path d="" fill="#000000" transform="translate(0,0)"/>
<path d="" fill="#000000" transform="translate(0,0)"/>
<path d="" fill="#000000" transform="translate(0,0)"/>
<path d="" fill="#000000" transform="translate(0,0)"/>
<path d="" fill="#000000" transform="translate(0,0)"/>
<path d="" fill="#000000" transform="translate(0,0)"/>
<path d="" fill="#000000" transform="translate(0,0)"/>
<path d="" fill="#000000" transform="translate(0,0)"/>
<path d="" fill="#000000" transform="translate(0,0)"/>
<path d="" fill="#000000" transform="translate(0,0)"/>
<path d="" fill="#000000" transform="translate(0,0)"/>
<path d="" fill="#000000" transform="translate(0,0)"/>
<path d="" fill="#000000" transform="translate(0,0)"/>
<path d="" fill="#000000" transform="translate(0,0)"/>
<path d="" fill="#000000" transform="translate(0,0)"/>
<path d="" fill="#000000" transform="translate(0,0)"/>
<path d="" fill="#000000" transform="translate(0,0)"/>
<path d="" fill="#000000" transform="translate(0,0)"/>
<path d="" fill="#000000" transform="translate(0,0)"/>
<path d="" fill="#000000" transform="translate(0,0)"/>
<path d="" fill="#000000" transform="translate(0,0)"/>
</svg>
