<svg width="162" height="181" viewBox="0 0 162 181" fill="none" xmlns="http://www.w3.org/2000/svg">
<path d="M96.8474 123.658C96.2203 122.839 96.3423 122.235 96.4178 121.678C96.9403 117.578 95.2565 114.513 91.8655 112.399C87.2319 109.513 82.0874 107.777 76.9255 106.122C68.7035 103.486 60.7138 100.368 53.6764 95.2062C50.7325 93.0462 48.468 90.3287 46.6738 87.1874C44.6589 83.6687 44.897 80.0978 46.7493 76.6603C47.986 74.3668 49.5131 72.201 51.5686 70.5345C57.0615 66.0751 61.3699 60.6984 64.4532 54.3287C64.8596 53.4867 65.0861 52.4822 66.1138 51.8667C67.0893 52.8074 66.7235 54.0325 66.6887 55.0835C66.5203 59.8738 67.1764 64.5597 68.6919 69.0771C71.2119 76.5907 76.7455 81.3926 83.5274 84.981C88.5616 87.6462 93.6829 90.1604 98.1249 93.8242C102.271 97.2442 104.849 101.5 105.505 106.848C105.824 109.432 104.878 111.824 103.978 114.158C102.532 117.921 100.128 121.004 96.859 123.658H96.8474Z" fill="#FF5722"/>
<path d="M76.8616 78.2223C77.8138 75.2784 78.6035 72.8165 79.0158 70.2558C80.27 62.4809 78.4758 55.5713 73.6274 49.3235C69.3364 43.8016 63.6577 40.1493 57.4738 37.3854C46.6389 32.5428 36.466 26.6725 27.3382 19.1183C22.1821 14.8447 17.7808 9.82213 14.8253 3.70212C14.3898 2.80212 13.7685 1.85566 14.3724 0.537598C17.206 2.19825 19.7492 4.08535 22.5131 5.61825C29.835 9.68858 37.6563 12.3189 45.7447 14.3628C54.8202 16.6563 64.1164 18.1834 72.8145 21.8357C77.1983 23.6764 81.4371 25.7609 84.8513 29.1925C88.9274 33.2919 90.9481 38.2332 91.1861 43.999C91.5984 53.9513 88.1784 62.7597 83.2487 71.1326C82.2674 72.7932 81.1177 74.361 80.0087 75.9403C79.3525 76.8694 78.6674 77.8158 76.8674 78.2165L76.8616 78.2223Z" fill="#FF5722"/>
<path d="M161.764 41.8041C161.473 44.2312 160.457 46.0022 159.569 47.75C152.996 60.6868 143.677 71.0339 130.554 77.5719C121.96 81.8571 112.844 84.1332 103.159 84.0578C97.0449 84.0113 90.9829 83.8081 85.1184 81.8629C84.5668 81.6829 84.0151 81.4971 83.4809 81.2707C82.1339 80.7016 81.739 79.97 82.7609 78.6229C84.8106 75.9229 86.5584 73.0197 88.1726 70.0468C91.5229 63.8803 93.7352 57.3364 94.2578 50.1016C95.6107 50.4441 95.959 51.5009 96.47 52.3487C101.934 61.3951 111.625 65.6513 121.978 63.9732C134.044 62.0106 143.984 55.8732 153.42 48.6267C156.155 46.5248 158.768 44.2661 161.764 41.8099V41.8041Z" fill="#FF5722"/>
<path d="M57.5841 173.402C56.5796 169.233 57.0441 165.325 57.2531 161.365C57.5783 155.141 58.699 149.09 60.3538 143.121C62.5661 135.16 66.3925 128.053 72.3441 122.264C76.1938 118.525 80.7171 115.773 85.8558 114.048C87.4119 113.526 88.6197 113.793 89.9087 114.698C93.4855 117.213 94.8326 121.37 93.2532 125.417C92.2487 127.989 90.5764 130.091 88.5616 131.949C80.1016 139.748 71.5893 147.482 65.5157 157.457C62.8912 161.771 60.8706 166.353 58.9312 170.981C58.6061 171.753 58.6409 172.711 57.5667 173.402H57.5841Z" fill="#FF5722"/>
<path d="M0.419479 180.457C-0.0856837 179.853 -0.0276191 179.359 0.0536714 178.889C2.24851 166.457 5.54078 154.391 11.8872 143.342C16.5905 135.155 22.664 128.286 31.0195 123.664C34.8634 121.538 39.0209 120.308 43.3409 119.576C44.7809 119.332 45.3499 119.965 45.1467 121.341C45.0654 121.91 44.8796 122.468 44.6996 123.019C43.5441 126.509 42.0751 129.871 40.6815 133.268C38.4402 138.726 34.7589 142.889 29.9744 146.268C25.3989 149.502 21.1369 153.195 17.2292 157.173C11.266 163.246 6.08078 169.993 2.30077 177.704C1.83626 178.651 1.40658 179.615 0.419479 180.462V180.457Z" fill="#FF5722"/>
<path d="M85.8384 17.7944C85.9197 14.1538 86.6281 10.8325 89.3281 8.20213C92.2719 5.33954 95.7732 4.96793 99.3849 7.0118C103.49 9.3402 105.441 13.1725 106.631 17.4228C107.572 20.7905 107.746 24.2686 106.509 27.6944C105.656 30.0402 104.355 32.0377 102.253 33.3906C98.2584 35.9628 93.9732 34.5983 90.4603 30.557C87.3422 26.9686 85.8616 22.5499 85.8384 17.7886V17.7944Z" fill="#FF5722"/>
<path d="M51.1215 97.4823C56.2951 101.129 61.3699 103.417 66.7119 105.176C69.2145 106 69.4351 106.552 68.2506 108.666C62.537 118.885 55.4183 127.914 45.8202 134.8C44.8796 135.474 43.8809 136.06 42.8996 136.676C42.6615 136.827 42.4002 136.937 41.7615 136.502C47.7247 124.448 50.6918 111.517 51.1215 97.4881V97.4823Z" fill="#FF5722"/>
</svg>
